<?xml version="1.0" encoding="utf-8"?>
<svg version="1.1" id="Layer_1"
xmlns="http://www.w3.org/2000/svg"
xmlns:xlink="http://www.w3.org/1999/xlink"
width="590px" height="125px"
xml:space="preserve">
<g id="PathID_1" transform="matrix(2.0879, 0, 0, 2.0879, 101.75, 36.75)" opacity="0.4">
<path style="fill:#FFFFFF;fill-opacity:1" d="M9.5 -3.5Q12.4 -2.7 14.15 0.2Q15.9 3.05 14.8 6.25Q13.1 11.1 7.9 13.4Q2.7 15.55 -4 14.5Q-10.45 13.55 -13.75 12.05Q-14.9 8.75 -15.15 2.45Q-15.5 -4.1 -12.6 -8.85Q-9.65 -13.65 -4.5 -14.7Q-1.05 -15.35 1.7 -13.35Q4.45 -11.35 4.95 -8.35Q5.3 -5.7 5 -4.1L9.5 -3.5" />
</g>
<g id="PathID_2" transform="matrix(2.0879, 0, 0, 2.0879, 101.75, 36.75)" opacity="0.4">
</g>
<g id="PathID_3" transform="matrix(2.0879, 0, 0, 2.0879, 79.3, 34.7)" opacity="0.4">
<path style="fill:#FFFFFF;fill-opacity:1" d="M3.7 -13.1Q6.25 -14.75 9.6 -14.05Q12.85 -13.35 14.45 -10.35Q16.9 -5.85 14.95 -0.5Q13 4.85 7.7 9Q2.55 13 -0.8 14.4Q-4 13 -8.75 8.9Q-13.8 4.7 -15.3 -0.65Q-16.75 -6.1 -14 -10.55Q-12.15 -13.55 -8.85 -14.2Q-5.45 -14.85 -3 -13.15Q-0.8 -11.6 0.2 -10.25Q1.3 -11.6 3.7 -13.1" />
</g>
<g id="PathID_4" transform="matrix(2.0879, 0, 0, 2.0879, 79.3, 34.7)" opacity="0.4">
</g>
<g id="PathID_5" transform="matrix(2.0879, 0, 0, 2.0879, 55, 36.45)" opacity="0.4">
<path style="fill:#FFFFFF;fill-opacity:1" d="M6.55 -14.7Q11.35 -12.95 13.5 -7.7Q15.65 -2.4 14.45 4.2Q13.35 10.65 11.75 13.9Q8.45 15 2.15 15.15Q-4.35 15.4 -9.1 12.4Q-13.8 9.4 -14.75 4.2Q-15.35 0.75 -13.35 -1.95Q-11.25 -4.7 -8.3 -5.1Q-5.6 -5.45 -4 -5.1Q-4.1 -6.8 -3.3 -9.55Q-2.5 -12.5 0.45 -14.2Q3.35 -15.85 6.55 -14.7" />
</g>
<g id="PathID_6" transform="matrix(2.0879, 0, 0, 2.0879, 55, 36.45)" opacity="0.4">
</g>
<g id="PathID_7" transform="matrix(2.0879, 0, 0, 2.0879, 55.35, 83.6)" opacity="1">
<path style="fill:#FFFFFF;fill-opacity:0.4" d="M14.45 -4.2Q15.65 2.4 13.5 7.7Q11.35 12.95 6.55 14.7Q3.35 15.85 0.45 14.2Q-2.5 12.5 -3.3 9.55Q-4.1 6.8 -4 5.1Q-5.6 5.45 -8.3 5.1Q-11.25 4.7 -13.35 1.95Q-15.35 -0.75 -14.75 -4.2Q-13.8 -9.4 -9.1 -12.4Q-4.35 -15.4 2.15 -15.15Q8.45 -15 11.75 -13.9Q13.35 -10.65 14.45 -4.2" />
</g>
<g id="PathID_8" transform="matrix(2.0879, 0, 0, 2.0879, 55.35, 83.6)" opacity="1">
</g>
<g id="PathID_9" transform="matrix(2.0879, 0, 0, 2.0879, 101.55, 83.6)" opacity="0.4">
<path style="fill:#FFFFFF;fill-opacity:1" d="M14.15 -0.2Q12.4 2.7 9.5 3.5Q6.7 4.2 5 4.1Q5.3 5.7 4.95 8.35Q4.45 11.35 1.7 13.35Q-1.05 15.35 -4.5 14.7Q-9.65 13.65 -12.6 8.85Q-15.5 4.1 -15.15 -2.45Q-14.9 -8.75 -13.75 -12.05Q-10.45 -13.55 -4 -14.5Q2.7 -15.55 7.9 -13.4Q13.1 -11.1 14.8 -6.25Q15.9 -3.05 14.15 -0.2" />
</g>
<g id="PathID_10" transform="matrix(2.0879, 0, 0, 2.0879, 101.55, 83.6)" opacity="0.4">
</g>
<g id="PathID_11" transform="matrix(2.0879, 0, 0, 2.0879, 79.35, 84.8)" opacity="0.4">
<path style="fill:#FFFFFF;fill-opacity:1" d="M-0.8 -14.4Q2.55 -13 7.7 -9Q13 -4.85 14.95 0.5Q16.9 5.85 14.45 10.35Q12.85 13.35 9.6 14.05Q6.25 14.75 3.7 13.1Q1.3 11.6 0.2 10.25Q-0.8 11.6 -3 13.15Q-5.45 14.85 -8.85 14.2Q-12.15 13.55 -14 10.55Q-16.75 6.1 -15.3 0.65Q-13.8 -4.7 -8.75 -8.9Q-4 -13 -0.8 -14.4" />
</g>
<g id="PathID_12" transform="matrix(2.0879, 0, 0, 2.0879, 79.35, 84.8)" opacity="0.4">
</g>
<g id="PathID_13" transform="matrix(1.30887, 0, 0, 1.30887, 209.45, 81.5)" opacity="1">
<path style="fill:#FFFFFF;fill-opacity:1" d="M1.5 -33.25Q-0.15 -30.3 -1.4 -28.8Q-2.7 -27.35 -3.5 -27.35Q-4.6 -27.35 -4.6 -29.85Q-4.6 -32.3 -3.9 -34.25Q-3.2 -36.2 -1.9 -37.7Q-0.65 -39.25 1.05 -40.3Q2.8 -41.35 4.85 -42.05Q6.95 -42.75 9.25 -43.05Q11.55 -43.4 13.95 -43.4Q16.8 -43.4 19.65 -42.95Q22.5 -42.55 25.1 -41.8Q27.75 -41.05 30 -40Q32.3 -38.95 33.95 -37.65Q35.65 -36.35 36.6 -34.85Q37.6 -33.35 37.6 -31.75Q37.6 -29.8 36.75 -27.9Q35.9 -26.05 34.1 -24.55Q32.35 -23.05 29.55 -22.05Q26.75 -21.1 22.85 -21Q25.35 -21 27.2 -20.2Q29.05 -19.45 30.3 -18.1Q31.55 -16.75 32.15 -15Q32.8 -13.25 32.8 -11.35Q32.8 -9.75 32.35 -8.1Q31.95 -6.5 31.1 -5Q30.25 -3.5 28.95 -2.2Q27.7 -0.9 25.95 0.05Q24.25 1.05 22.1 1.6Q19.95 2.2 17.4 2.2Q15.75 2.2 13.95 1.95Q12.15 1.75 10.3 1.4Q8.5 1.05 6.7 0.55Q4.95 0.05 3.35 -0.55Q2.65 -0.7 2.1 -1.05Q1.6 -1.4 1.6 -2.3Q1.6 -6.45 1.8 -10.8Q2 -15.15 2.65 -19.3Q3.3 -23.45 4.5 -27.2Q5.75 -31 7.8 -33.95Q9.55 -35.2 11 -35.2Q12.85 -35.2 14.05 -33.15Q12.9 -31.6 12.1 -29.7Q11.3 -27.8 10.75 -25.7Q10.2 -23.6 9.85 -21.4Q9.5 -19.25 9.3 -17.2L9.1 -14.65L8.9 -11.95L8.8 -9.25L8.8 -6.65L8.8 -6.1L8.85 -5.35L9 -4.65Q9.1 -4.35 9.3 -4.2Q10.85 -3.7 12.6 -3.35Q14.35 -3 16.1 -3Q18.2 -3 20.2 -3.5Q22.2 -4.05 23.75 -5.15Q25.3 -6.25 26.25 -8Q27.2 -9.75 27.2 -12.2Q27.2 -13.65 26.65 -14.6Q26.1 -15.6 25.2 -16.25Q24.3 -16.9 23.15 -17.25Q22.05 -17.65 20.85 -17.95L18.5 -18.6Q17.4 -18.9 16.5 -19.35Q15.6 -19.8 15.05 -20.5Q14.5 -21.2 14.5 -22.3L14.55 -23.2Q14.65 -23.6 14.85 -23.85Q15.1 -24.1 15.55 -24.2Q16.05 -24.35 16.85 -24.35Q17.9 -24.35 18.8 -24.25Q19.7 -24.15 20.7 -24.15Q23.1 -24.15 25.05 -24.75Q27 -25.35 28.35 -26.35Q29.7 -27.35 30.45 -28.65Q31.2 -30 31.2 -31.55Q31.2 -32.55 30.6 -33.35Q30.05 -34.2 29 -34.85Q27.95 -35.55 26.55 -36.05Q25.15 -36.55 23.5 -36.85Q21.85 -37.2 20 -37.35Q18.2 -37.55 16.35 -37.55Q13.95 -37.55 11.65 -37.25Q9.35 -37 7.35 -36.45Q5.35 -35.95 3.8 -35.1Q2.3 -34.3 1.5 -33.25" />
</g>
<g id="PathID_14" transform="matrix(1.30887, 0, 0, 1.30887, 209.45, 81.5)" opacity="1">
</g>
<g id="PathID_15" transform="matrix(1.30887, 0, 0, 1.30887, 251.6, 81.5)" opacity="1">
<path style="fill:#FFFFFF;fill-opacity:1" d="M29.35 -6.1L27.8 -4.2Q26.85 -3.15 25.65 -2.15Q24.45 -1.2 23.05 -0.5Q21.7 0.15 20.3 0.15Q18.65 0.15 17.55 -0.9Q16.45 -2 15.65 -4Q15.05 -3.3 14.15 -2.55Q13.3 -1.85 12.25 -1.25Q11.25 -0.7 10.1 -0.3Q9 0.05 7.85 0.05Q6.65 0.05 5.5 -0.4Q4.4 -0.9 3.5 -1.8Q2.65 -2.75 2.1 -4.05Q1.6 -5.35 1.6 -7Q1.6 -8.9 2.1 -10.85Q2.65 -12.85 3.55 -14.7Q4.5 -16.6 5.75 -18.25Q7 -19.95 8.5 -21.2Q10 -22.45 11.65 -23.2Q13.35 -23.95 15.05 -23.95Q15.65 -23.95 15.95 -23.7Q16.3 -23.5 16.5 -23.2L16.9 -22.6Q17.1 -22.35 17.4 -22.25L18 -22.05L18.65 -22.05L19.2 -22.05L19.8 -22.05Q20.15 -22.05 20.45 -21.95Q20.8 -21.9 21.05 -21.65Q21.3 -21.4 21.45 -20.95Q21.6 -20.5 21.6 -19.75Q21.6 -18.55 21.35 -17.05L20.8 -14.05L20.25 -11Q20 -9.45 20 -8.1Q20 -6.9 20.2 -6.25Q20.4 -5.6 21.1 -5.6Q21.65 -5.6 22.2 -5.85Q22.8 -6.1 23.35 -6.5L24.55 -7.5L25.65 -8.6Q26.9 -9.95 28.15 -11.65L29.35 -6.1M8 -8.1L8.05 -6.85Q8.15 -6.3 8.35 -5.8Q8.6 -5.35 8.95 -5.05Q9.35 -4.8 9.95 -4.8Q10.85 -4.8 11.6 -5.6Q12.35 -6.4 12.9 -7.5Q13.45 -8.65 13.8 -9.85Q14.15 -11.05 14.25 -11.85L15.75 -19.2Q14.75 -19.2 13.75 -18.65Q12.8 -18.15 11.9 -17.25Q11.05 -16.4 10.3 -15.25Q9.6 -14.15 9.05 -12.9Q8.55 -11.7 8.25 -10.45Q8 -9.2 8 -8.1" />
</g>
<g id="PathID_16" transform="matrix(1.30887, 0, 0, 1.30887, 251.6, 81.5)" opacity="1">
</g>
<g id="PathID_17" transform="matrix(1.30887, 0, 0, 1.30887, 281.9, 81.5)" opacity="1">
<path style="fill:#FFFFFF;fill-opacity:1" d="M21.9 -22.35Q21.9 -21.7 21.75 -20.5L21.35 -17.95L20.8 -15.1L20.3 -12.35L19.95 -10.1L19.8 -8.8L19.8 -7.5L19.95 -6.45Q20.1 -6.05 20.35 -5.8Q20.6 -5.55 21.1 -5.55Q21.65 -5.55 22.45 -5.8Q23.25 -6.1 24.1 -6.55L25.9 -7.6L27.7 -8.85Q28.55 -9.5 29.2 -10.15Q29.9 -10.8 30.35 -11.35L30.35 -9.8L30.35 -8.55L30.35 -7.3L30.4 -5.85Q29.85 -5.3 29 -4.65L27.2 -3.4L25.1 -2.2Q24 -1.65 22.85 -1.2Q21.75 -0.75 20.65 -0.5Q19.55 -0.25 18.6 -0.25Q17.65 -0.25 16.95 -0.6Q16.3 -1 15.8 -1.65Q15.35 -2.35 15 -3.25Q14.65 -4.2 14.4 -5.35Q13.5 -4.2 12.5 -3.2Q11.5 -2.2 10.45 -1.45Q9.45 -0.75 8.35 -0.35Q7.3 0.05 6.3 0.05Q5.5 0.05 4.75 -0.2Q4.05 -0.5 3.45 -1.15Q2.9 -1.8 2.55 -2.85Q2.25 -3.9 2.25 -5.5Q2.25 -7.4 2.7 -10.35L3.85 -17.2L4.05 -18.2L4.4 -19.6L5 -21.1Q5.35 -21.9 5.8 -22.5Q6.3 -23.15 6.95 -23.55Q7.6 -23.95 8.4 -23.95Q9.7 -23.9 10.25 -23.6Q10.85 -23.35 10.85 -22.9L10.35 -19.95L9.8 -16.7L9.3 -13.45L8.85 -10.65L8.55 -8.7L8.45 -7.95L8.5 -7.05L8.75 -6.3Q8.95 -6 9.2 -5.8Q9.5 -5.6 9.9 -5.6Q10.45 -5.6 11 -5.9Q11.6 -6.2 12.1 -6.7Q12.6 -7.25 13 -8.05Q13.4 -8.85 13.6 -9.85L16.1 -22.55Q16.2 -23.15 17.1 -23.55Q18 -23.95 19.1 -23.95Q20.4 -23.95 21.15 -23.5Q21.9 -23.05 21.9 -22.35M12.65 -31L13.05 -32L13.7 -33.5L14.45 -35.3L15.3 -37.25L17.45 -42.1Q17.75 -42.95 18.4 -43.3Q19.1 -43.7 19.8 -43.7Q20.45 -43.7 21.1 -43.45Q21.75 -43.2 22.25 -42.75Q22.8 -42.3 23.1 -41.65Q23.45 -41.05 23.45 -40.3Q23.45 -39.1 22.5 -37.85L21.4 -36.4L20.15 -34.75L18.8 -33.05L17.45 -31.45L16.35 -30.05L15.55 -29.05Q15.1 -28.55 14.65 -28.35Q14.25 -28.15 13.85 -28.15Q13.25 -28.15 12.8 -28.6Q12.4 -29.05 12.4 -29.8L12.45 -30.4L12.65 -31" />
</g>
<g id="PathID_18" transform="matrix(1.30887, 0, 0, 1.30887, 281.9, 81.5)" opacity="1">
</g>
<g id="PathID_19" transform="matrix(1.30887, 0, 0, 1.30887, 313.35, 81.5)" opacity="1">
<path style="fill:#FFFFFF;fill-opacity:1" d="M8.75 0Q7.4 0 6.25 -1.15Q5.1 -2.35 4.2 -4.35Q3.35 -6.35 2.85 -9Q2.4 -11.65 2.4 -14.55Q2.4 -16.75 2.7 -19.35Q3.05 -22 3.65 -24.75Q4.3 -27.55 5.15 -30.35Q6 -33.15 7.1 -35.7Q8.2 -38.3 9.45 -40.5Q10.75 -42.75 12.15 -44.4Q13.55 -46.1 15.05 -47.05Q16.6 -48 18.15 -48Q19.25 -48 19.95 -47.5Q20.65 -47 21.05 -46.2Q21.45 -45.4 21.6 -44.4Q21.75 -43.4 21.75 -42.35Q21.75 -40 21.2 -37.55Q20.7 -35.1 19.75 -32.65Q18.85 -30.2 17.65 -27.7L15.15 -22.8L12.55 -18L10.1 -13.4L9.8 -12.75L9.55 -11.85L9.3 -10.85L9.1 -9.85L9.1 -9.5Q9.1 -8.85 9.25 -8.25L9.6 -7.15L10 -6.35Q10.25 -6.1 10.45 -6.1Q10.9 -6.1 11.5 -6.3L12.8 -6.8L14.2 -7.6L15.65 -8.5Q17.2 -9.55 18.95 -10.9L21 -5.65Q18.75 -4.05 16.6 -2.8L14.6 -1.75Q13.6 -1.25 12.55 -0.85Q11.55 -0.45 10.55 -0.2Q9.6 0 8.75 0M8.8 -20L11.15 -24.5Q12.45 -27 13.55 -29.65Q14.7 -32.3 15.5 -34.9Q16.35 -37.55 16.55 -39.85L16.5 -41.05Q16.5 -41.6 16.3 -41.6Q15.55 -41.6 14.7 -40.65Q13.9 -39.7 13.05 -38.1Q12.2 -36.5 11.45 -34.35Q10.7 -32.25 10.1 -29.85Q9.5 -27.45 9.15 -24.9Q8.8 -22.4 8.8 -20" />
</g>
<g id="PathID_20" transform="matrix(1.30887, 0, 0, 1.30887, 313.35, 81.5)" opacity="1">
</g>
<g id="PathID_21" transform="matrix(1.38934, 0, 0, 1.38934, 346.6, 80.3)" opacity="1">
<path style="fill:#9F6A93;fill-opacity:1" d="M11 -2.45Q10.9 -1.7 10.5 -1.2Q10.15 -0.75 9.6 -0.45Q9.1 -0.2 8.5 -0.05L7.35 0.05Q6.7 0.05 6.05 -0.1Q5.45 -0.25 4.95 -0.5Q4.5 -0.8 4.2 -1.2Q3.95 -1.65 3.95 -2.15Q3.95 -3.2 4.05 -4.05L4.35 -5.8Q5.05 -8.7 5.55 -11.2Q6.1 -13.75 6.45 -16Q6.85 -18.25 7.1 -20.35Q7.4 -22.45 7.6 -24.6Q7.85 -26.75 8 -29L8.4 -33.9L8.4 -34.45Q8.4 -34.8 8.3 -35.1Q8.25 -35.45 8.05 -35.65Q7.85 -35.9 7.5 -35.9Q6.9 -35.9 6 -35.45Q5.15 -35.05 4.2 -34.35Q3.25 -33.65 2.3 -32.7Q1.35 -31.8 0.55 -30.7Q0.4 -30.35 0.05 -30.15Q-0.25 -30 -0.65 -30Q-0.75 -30 -0.9 -30.2L-1.15 -30.75L-1.3 -31.35L-1.4 -32Q-1.4 -32.15 -1.3 -32.25Q-0.4 -35.2 0.7 -37.15Q1.85 -39.15 3.1 -40.35Q4.4 -41.55 5.7 -42.05Q7 -42.55 8.2 -42.55Q9.75 -42.55 10.75 -41.95Q11.8 -41.35 12.4 -40.3Q13 -39.25 13.25 -37.75Q13.5 -36.25 13.5 -34.4Q13.5 -33 13.25 -31.1Q13.05 -29.25 12.7 -27.2L11.95 -23.05L11.2 -19.2Q12 -22.5 13.05 -25.55Q14.15 -28.65 15.45 -31.3Q16.75 -33.95 18.2 -36.1Q19.65 -38.3 21.15 -39.85Q22.7 -41.4 24.25 -42.25Q25.85 -43.1 27.4 -43.1Q28.55 -43.1 29.5 -42.6Q30.5 -42.1 31.2 -41.05Q31.9 -40 32.3 -38.4Q32.7 -36.8 32.7 -34.6L32.65 -33.95L32.55 -33L32.4 -31.8L32.25 -30.55L31.8 -27.3L32.35 -27.3Q33.3 -31 34.7 -33.95Q36.15 -36.9 37.9 -38.95Q39.7 -41.05 41.75 -42.15Q43.8 -43.25 46 -43.25Q47.55 -43.25 48.7 -42.35Q49.9 -41.45 50.7 -39.9Q51.5 -38.35 51.9 -36.3Q52.35 -34.25 52.35 -31.95Q52.35 -29.8 52.05 -27.5Q51.8 -25.25 51.35 -23.05Q50.95 -20.85 50.45 -18.7L49.5 -14.7L48.8 -11.15Q48.55 -9.55 48.55 -8.4Q48.55 -6.9 49.05 -6.25Q49.6 -5.6 50.65 -5.6Q51.2 -5.6 51.85 -5.9Q52.5 -6.2 53.1 -6.7Q53.75 -7.25 54.35 -7.9L55.6 -9.25Q56.9 -10.85 58.2 -12.95L58.45 -12.4L59 -10.95L60.15 -8Q58.9 -5.8 57.55 -4.25Q56.25 -2.75 54.85 -1.8Q53.5 -0.85 52.05 -0.4Q50.65 0 49.25 0Q47.9 0 46.6 -0.45Q45.35 -0.95 44.35 -1.85Q43.35 -2.8 42.75 -4.2Q42.15 -5.6 42.15 -7.4L42.15 -7.8L42.2 -8.25Q42.3 -9.95 42.6 -11.8L43.35 -15.7L44.2 -19.75L45 -23.9Q45.4 -26 45.65 -28Q45.9 -30 45.9 -31.85Q45.9 -33 45.8 -33.9Q45.75 -34.8 45.5 -35.45Q45.3 -36.1 44.85 -36.45Q44.45 -36.8 43.75 -36.8Q42.45 -36.8 41.25 -35.85Q40.1 -34.95 39.05 -33.3Q38 -31.7 37.05 -29.45Q36.15 -27.25 35.35 -24.65Q34.55 -22.05 33.85 -19.2Q33.15 -16.4 32.55 -13.5L31.4 -7.85L30.45 -2.55Q30.25 -1.85 29.8 -1.35Q29.4 -0.85 28.85 -0.55Q28.35 -0.25 27.75 -0.1L26.55 0Q26 0 25.5 -0.2Q25 -0.4 24.6 -0.8Q24.2 -1.25 23.95 -1.9Q23.75 -2.6 23.75 -3.6Q23.75 -4.25 24.05 -5.8L24.8 -9.6L25.8 -14.45Q26.35 -17.1 26.8 -19.85Q27.25 -22.6 27.55 -25.25Q27.85 -27.95 27.85 -30.2Q27.85 -31.75 27.75 -32.95Q27.7 -34.2 27.4 -35.05Q27.15 -35.9 26.65 -36.35Q26.15 -36.8 25.3 -36.8Q24.6 -36.8 23.7 -35.85Q22.8 -34.9 21.75 -33.2Q20.7 -31.55 19.6 -29.25Q18.5 -27 17.4 -24.35L15.3 -18.9Q14.3 -16.05 13.45 -13.15Q12.6 -10.3 11.95 -7.55Q11.3 -4.85 11 -2.45" />
</g>
<g id="PathID_22" transform="matrix(1.38934, 0, 0, 1.38934, 346.6, 80.3)" opacity="1">
</g>
<g id="PathID_23" transform="matrix(1.38934, 0, 0, 1.38934, 422.2, 80.3)" opacity="1">
<path style="fill:#9F6A93;fill-opacity:1" d="M29.35 -6.1L27.8 -4.2Q26.85 -3.15 25.65 -2.15Q24.45 -1.2 23.05 -0.5Q21.7 0.15 20.3 0.15Q18.65 0.15 17.55 -0.9Q16.45 -2 15.65 -4Q15.05 -3.3 14.15 -2.55Q13.3 -1.85 12.25 -1.25Q11.25 -0.7 10.1 -0.3Q9 0.05 7.85 0.05Q6.65 0.05 5.5 -0.4Q4.4 -0.9 3.5 -1.8Q2.65 -2.75 2.1 -4.05Q1.6 -5.35 1.6 -7Q1.6 -8.9 2.1 -10.85Q2.65 -12.85 3.55 -14.7Q4.5 -16.6 5.75 -18.25Q7 -19.95 8.5 -21.2Q10 -22.45 11.65 -23.2Q13.35 -23.95 15.05 -23.95Q15.65 -23.95 15.95 -23.7Q16.3 -23.5 16.5 -23.2L16.9 -22.6Q17.1 -22.35 17.4 -22.25L18 -22.05L18.65 -22.05L19.2 -22.05L19.8 -22.05Q20.15 -22.05 20.45 -21.95Q20.8 -21.9 21.05 -21.65Q21.3 -21.4 21.45 -20.95Q21.6 -20.5 21.6 -19.75Q21.6 -18.55 21.35 -17.05L20.8 -14.05L20.25 -11Q20 -9.45 20 -8.1Q20 -6.9 20.2 -6.25Q20.4 -5.6 21.1 -5.6Q21.65 -5.6 22.2 -5.85Q22.8 -6.1 23.35 -6.5L24.55 -7.5L25.65 -8.6Q26.9 -9.95 28.15 -11.65L29.35 -6.1M8 -8.1L8.05 -6.85Q8.15 -6.3 8.35 -5.8Q8.6 -5.35 8.95 -5.05Q9.35 -4.8 9.95 -4.8Q10.85 -4.8 11.6 -5.6Q12.35 -6.4 12.9 -7.5Q13.45 -8.65 13.8 -9.85Q14.15 -11.05 14.25 -11.85L15.75 -19.2Q14.75 -19.2 13.75 -18.65Q12.8 -18.15 11.9 -17.25Q11.05 -16.4 10.3 -15.25Q9.6 -14.15 9.05 -12.9Q8.55 -11.7 8.25 -10.45Q8 -9.2 8 -8.1M16.45 -30.25L16.85 -31.25L17.5 -32.75L18.25 -34.55L19.1 -36.5L21.25 -41.35Q21.55 -42.2 22.2 -42.55Q22.9 -42.95 23.6 -42.95Q24.25 -42.95 24.9 -42.7Q25.55 -42.45 26.05 -42Q26.6 -41.55 26.9 -40.9Q27.25 -40.3 27.25 -39.55Q27.25 -38.35 26.3 -37.1L25.2 -35.65L23.95 -34L22.6 -32.3L21.25 -30.7L20.15 -29.3L19.35 -28.3Q18.9 -27.8 18.45 -27.6Q18.05 -27.4 17.65 -27.4Q17.05 -27.4 16.6 -27.85Q16.2 -28.3 16.2 -29.05L16.25 -29.65L16.45 -30.25" />
</g>
<g id="PathID_24" transform="matrix(1.38934, 0, 0, 1.38934, 422.2, 80.3)" opacity="1">
</g>
<g id="PathID_25" transform="matrix(1.38934, 0, 0, 1.38934, 454.35, 80.3)" opacity="1">
<path style="fill:#9F6A93;fill-opacity:1" d="M13.5 -2.6Q12.15 -1.4 10.7 -0.65Q9.25 0.05 7.85 0.05Q6.65 0.05 5.5 -0.4Q4.4 -0.9 3.5 -1.8Q2.65 -2.75 2.1 -4.05Q1.6 -5.35 1.6 -7Q1.6 -8.9 2.1 -10.85Q2.65 -12.85 3.55 -14.7Q4.5 -16.6 5.75 -18.25Q7 -19.95 8.5 -21.2Q10 -22.45 11.65 -23.2Q13.35 -23.95 15.05 -23.95Q15.65 -23.95 15.95 -23.7Q16.3 -23.5 16.5 -23.2L16.9 -22.6Q17.1 -22.35 17.4 -22.25L18 -22.05L18.65 -22.05L19.2 -22.05L19.8 -22.05Q20.15 -22.05 20.45 -21.95Q20.8 -21.9 21.05 -21.65Q21.3 -21.4 21.45 -20.95Q21.6 -20.5 21.6 -19.75L21.5 -18L21.2 -15.55L20.8 -12.65L20.4 -9.7L19.2 -2.35Q19.95 -2.75 20.8 -3.35Q21.7 -4 22.75 -5.05Q23.85 -6.1 25.15 -7.7Q26.5 -9.3 28.15 -11.65L29.35 -6.1Q28.9 -5.35 28.15 -4.5Q27.45 -3.7 26.6 -2.9L24.8 -1.3L22.95 0.1Q20.85 1.7 18.4 3.2Q17.9 5.9 17.25 8.4Q16.6 10.95 15.7 13.15Q14.85 15.4 13.7 17.25Q12.55 19.1 11.1 20.4Q9.7 21.75 7.9 22.45Q6.15 23.2 4 23.2Q3.15 23.2 2.15 23Q1.15 22.85 0.3 22.3Q-0.5 21.8 -1.05 20.8Q-1.6 19.85 -1.6 18.25Q-1.6 17.1 -1 15.7Q-0.45 14.3 0.55 12.7Q1.55 11.15 2.9 9.45Q4.3 7.8 5.9 6.1Q7.5 4.45 9.25 2.8L12.85 -0.3L13.5 -2.6M8 -8.1L8.05 -6.85Q8.15 -6.3 8.35 -5.8Q8.6 -5.35 8.95 -5.05Q9.35 -4.8 9.95 -4.8Q10.85 -4.8 11.6 -5.6Q12.35 -6.4 12.9 -7.5Q13.45 -8.65 13.8 -9.85Q14.15 -11.05 14.25 -11.85L15.75 -19.2Q14.75 -19.2 13.75 -18.65Q12.8 -18.15 11.9 -17.25Q11.05 -16.4 10.3 -15.25Q9.6 -14.15 9.05 -12.9Q8.55 -11.7 8.25 -10.45Q8 -9.2 8 -8.1M4.3 18.4Q5.35 18.4 6.25 17.8Q7.2 17.2 8 16.2Q8.8 15.2 9.45 13.9Q10.1 12.65 10.6 11.3Q11.1 9.95 11.45 8.65L12 6.4Q11 7.05 10 7.95Q9 8.85 8 9.9Q7.05 10.95 6.2 12.05Q5.35 13.15 4.7 14.15Q4.05 15.15 3.65 16Q3.3 16.9 3.3 17.5Q3.3 18.4 4.3 18.4" />
</g>
<g id="PathID_26" transform="matrix(1.38934, 0, 0, 1.38934, 454.35, 80.3)" opacity="1">
</g>
<g id="PathID_27" transform="matrix(1.38934, 0, 0, 1.38934, 486.5, 80.3)" opacity="1">
<path style="fill:#9F6A93;fill-opacity:1" d="M18.4 -5.3Q17.5 -4.5 16.15 -3.55Q14.8 -2.6 13.25 -1.8Q11.7 -1.05 10.1 -0.5Q8.5 0 7.05 0Q5.75 0 4.85 -0.35Q3.95 -0.7 3.4 -1.35Q2.85 -2 2.6 -2.95Q2.4 -3.9 2.4 -5Q2.4 -6.6 2.75 -8.65Q3.1 -10.75 3.6 -13L4.75 -17.45L5.8 -21.55Q5.95 -22.2 6.45 -22.65Q7 -23.15 7.65 -23.4Q8.35 -23.7 9.05 -23.85Q9.75 -24 10.35 -24Q11.4 -24 11.75 -23.6Q12.15 -23.2 12.15 -22.55Q12.15 -22 11.9 -20.95L11.25 -18.6L10.45 -15.8L9.65 -12.75L9.05 -9.8Q8.8 -8.4 8.8 -7.25Q8.8 -6.1 9.05 -5.45Q9.3 -4.8 10.05 -4.8Q10.95 -4.8 12.05 -5.4Q13.15 -6.05 14.25 -6.9Q15.4 -7.8 16.45 -8.75L18.4 -10.4L18.4 -5.3M7.2 -31Q7.2 -31.6 7.45 -32.3Q7.7 -33.05 8.25 -33.65Q8.85 -34.3 9.75 -34.75Q10.7 -35.2 12.1 -35.2Q13 -35.2 13.75 -35Q14.55 -34.8 15.1 -34.35Q15.7 -33.95 16 -33.25Q16.35 -32.6 16.35 -31.7Q16.35 -30.85 16.05 -30.05Q15.8 -29.25 15.2 -28.6Q14.6 -28 13.7 -27.6Q12.8 -27.2 11.5 -27.2Q9.3 -27.2 8.25 -28.25Q7.2 -29.3 7.2 -31" />
</g>
<g id="PathID_28" transform="matrix(1.38934, 0, 0, 1.38934, 486.5, 80.3)" opacity="1">
</g>
<g id="PathID_29" transform="matrix(1.38934, 0, 0, 1.38934, 505.15, 80.3)" opacity="1">
<path style="fill:#9F6A93;fill-opacity:1" d="M10.9 0Q8.6 0 6.85 -0.85Q5.15 -1.7 3.95 -3.1Q2.8 -4.55 2.2 -6.4Q1.6 -8.3 1.6 -10.3Q1.6 -11.75 1.9 -13.3Q2.2 -14.9 2.75 -16.4Q3.35 -17.95 4.2 -19.3Q5.1 -20.7 6.2 -21.7Q7.35 -22.75 8.75 -23.35Q10.15 -24 11.85 -24Q13.25 -24 14.45 -23.55Q15.7 -23.1 16.55 -22.3Q17.4 -21.55 17.9 -20.5Q18.4 -19.45 18.4 -18.2Q18.4 -17.35 18.15 -16.5Q17.95 -15.7 17.5 -15.05Q17.05 -14.4 16.4 -14Q15.8 -13.6 15.05 -13.6Q13.85 -13.6 13.5 -14.2Q13.15 -14.85 13.15 -15.95L13.15 -16.9L13.2 -17.8Q13.2 -18.4 13.05 -18.8Q12.95 -19.2 12.55 -19.2Q11.5 -19.2 10.75 -18.7Q10.05 -18.2 9.55 -17.4Q9.05 -16.65 8.75 -15.65L8.25 -13.65L8.05 -11.8L8 -10.35Q8 -9.45 8.15 -8.45Q8.3 -7.5 8.75 -6.65Q9.2 -5.85 9.95 -5.3Q10.75 -4.8 12 -4.8Q13.2 -4.8 14.65 -5.5Q16.1 -6.25 17.55 -7.35Q19 -8.5 20.3 -9.85Q21.65 -11.2 22.6 -12.4L24.35 -9.5Q22.45 -6.85 20.3 -4.75Q19.35 -3.85 18.25 -3Q17.2 -2.15 16 -1.45Q14.8 -0.8 13.5 -0.4Q12.25 0 10.9 0" />
</g>
<g id="PathID_30" transform="matrix(1.38934, 0, 0, 1.38934, 505.15, 80.3)" opacity="1">
</g>
<g id="PathID_31" transform="matrix(1.38934, 0, 0, 1.38934, 530.65, 80.3)" opacity="1">
<path style="fill:#9F6A93;fill-opacity:1" d="M18.55 -18.7Q19.25 -17.25 19.6 -15.65Q20 -14.05 20 -12.55Q20 -11.1 19.65 -9.6Q19.35 -8.1 18.7 -6.7Q18.1 -5.3 17.2 -4.05Q16.35 -2.85 15.2 -1.95Q14.05 -1.05 12.7 -0.5Q11.35 0 9.85 0Q7.65 0 6.05 -0.95Q4.5 -1.9 3.5 -3.45Q2.5 -5 2.05 -6.95Q1.6 -8.9 1.6 -10.9Q1.6 -13.65 2.4 -16.05Q3.25 -18.45 4.75 -20.2Q6.3 -21.95 8.5 -22.95Q10.75 -24 13.55 -24Q15.9 -24 17.95 -23.25Q20.05 -22.5 21.85 -21.25Q23.7 -20.05 25.25 -18.45Q26.8 -16.85 28.15 -15.15L27.7 -11.6Q27 -12.5 25.85 -13.55Q24.7 -14.6 23.4 -15.6L20.9 -17.5L18.75 -19L18.55 -18.7M10.8 -4.8Q11.65 -4.8 12.45 -5.65Q13.25 -6.5 13.85 -7.8Q14.45 -9.15 14.8 -10.7Q15.2 -12.3 15.2 -13.75Q15.2 -14.9 15 -15.9Q14.85 -16.9 14.5 -17.6Q14.15 -18.35 13.6 -18.75Q13.05 -19.2 12.25 -19.2Q11.25 -19.2 10.3 -18.3Q9.4 -17.45 8.7 -16.05Q8 -14.7 7.6 -13.05Q7.2 -11.4 7.2 -9.9Q7.2 -8.85 7.4 -7.9Q7.6 -7 8 -6.3Q8.45 -5.6 9.15 -5.2Q9.85 -4.8 10.8 -4.8" />
</g>
<g id="PathID_32" transform="matrix(1.38934, 0, 0, 1.38934, 530.65, 80.3)" opacity="1">
</g>
<g id="PathID_33" transform="matrix(0.503157, 0, 0, 0.39552, 142.5, 106.6)" opacity="1">
<path style="fill:#C3A3BD;fill-opacity:1" d="M13.7 -43.4Q17.8 -43.4 20.95 -42.7Q24.15 -42.05 26.5 -40.85Q28.9 -39.65 30.55 -37.95Q32.2 -36.3 33.2 -34.35Q34.25 -32.4 34.7 -30.2Q35.2 -28 35.2 -25.7Q35.2 -22.55 34.5 -19.3Q33.8 -16.05 32.45 -13Q31.15 -10 29.2 -7.35Q27.25 -4.7 24.75 -2.7Q22.25 -0.75 19.25 0.35Q16.25 1.5 12.8 1.5Q11.6 1.5 10.35 1.3Q9.15 1.15 8 0.85Q6.85 0.55 5.8 0.15Q4.8 -0.2 4.05 -0.6L3.5 -0.8L3.25 -1.15L3.1 -1.6L3.1 -2.3Q3.1 -6.45 3.3 -10.8Q3.5 -15.15 4.15 -19.3Q4.8 -23.45 6 -27.2Q7.25 -31 9.3 -33.95Q11.05 -35.2 12.5 -35.2Q14.35 -35.2 15.55 -33.15Q14.4 -31.6 13.6 -29.7Q12.85 -27.8 12.3 -25.7Q11.8 -23.6 11.45 -21.4L10.8 -17.2L10.2 -13.25L9.85 -10.35L9.65 -8.2L9.6 -6.45L9.65 -4.85Q9.7 -4.25 9.95 -3.85Q10.2 -3.5 10.65 -3.35Q11.15 -3.2 12 -3.2Q14.5 -3.2 16.75 -4.15Q19 -5.15 20.9 -6.8Q22.8 -8.5 24.3 -10.7Q25.8 -12.9 26.85 -15.35Q27.95 -17.8 28.5 -20.3Q29.1 -22.85 29.1 -25.2Q29.1 -28.1 28.15 -30.4Q27.2 -32.7 25.45 -34.25Q23.75 -35.85 21.35 -36.7Q18.95 -37.55 16.1 -37.55Q14 -37.55 11.9 -37.3Q9.85 -37.05 8.1 -36.5Q6.35 -36 5 -35.15Q3.65 -34.35 3 -33.25Q1.15 -30.4 0 -28.85Q-1.2 -27.35 -2 -27.35Q-3.1 -27.35 -3.1 -29.85Q-3.1 -32.3 -2.45 -34.25Q-1.8 -36.2 -0.65 -37.7Q0.45 -39.25 2 -40.3Q3.6 -41.35 5.45 -42.05Q7.3 -42.75 9.4 -43.05Q11.5 -43.4 13.7 -43.4" />
</g>
<g id="PathID_34" transform="matrix(0.503157, 0, 0, 0.39552, 142.5, 106.6)" opacity="1">
</g>
<g id="PathID_35" transform="matrix(0.503157, 0, 0, 0.39552, 158.5, 106.6)" opacity="1">
<path style="fill:#C3A3BD;fill-opacity:1" d="M18.4 -5.3Q17.5 -4.5 16.15 -3.55Q14.8 -2.6 13.25 -1.8Q11.7 -1.05 10.1 -0.5Q8.5 0 7.05 0Q5.75 0 4.85 -0.35Q3.95 -0.7 3.4 -1.35Q2.85 -2 2.6 -2.95Q2.4 -3.9 2.4 -5Q2.4 -6.6 2.75 -8.65Q3.1 -10.75 3.6 -13L4.75 -17.45L5.8 -21.55Q5.95 -22.2 6.45 -22.65Q7 -23.15 7.65 -23.4Q8.35 -23.7 9.05 -23.85Q9.75 -24 10.35 -24Q11.4 -24 11.75 -23.6Q12.15 -23.2 12.15 -22.55Q12.15 -22 11.9 -20.95L11.25 -18.6L10.45 -15.8L9.65 -12.75L9.05 -9.8Q8.8 -8.4 8.8 -7.25Q8.8 -6.1 9.05 -5.45Q9.3 -4.8 10.05 -4.8Q10.95 -4.8 12.05 -5.4Q13.15 -6.05 14.25 -6.9Q15.4 -7.8 16.45 -8.75L18.4 -10.4L18.4 -5.3M7.2 -31Q7.2 -31.6 7.45 -32.3Q7.7 -33.05 8.25 -33.65Q8.85 -34.3 9.75 -34.75Q10.7 -35.2 12.1 -35.2Q13 -35.2 13.75 -35Q14.55 -34.8 15.1 -34.35Q15.7 -33.95 16 -33.25Q16.35 -32.6 16.35 -31.7Q16.35 -30.85 16.05 -30.05Q15.8 -29.25 15.2 -28.6Q14.6 -28 13.7 -27.6Q12.8 -27.2 11.5 -27.2Q9.3 -27.2 8.25 -28.25Q7.2 -29.3 7.2 -31" />
</g>
<g id="PathID_36" transform="matrix(0.503157, 0, 0, 0.39552, 158.5, 106.6)" opacity="1">
</g>
<g id="PathID_37" transform="matrix(0.503157, 0, 0, 0.39552, 165.3, 106.6)" opacity="1">
<path style="fill:#C3A3BD;fill-opacity:1" d="M2.4 -9.6L4.65 -11.6Q5.55 -12.4 6.15 -13.05Q6.8 -13.7 7.3 -14.35L8.5 -15.95L10.2 -18.25L12.8 -21.6L13.55 -22.45Q13.95 -22.9 14.4 -23.2Q14.9 -23.55 15.5 -23.75Q16.1 -24 16.8 -24Q18 -24 18.65 -23.7Q19.3 -23.45 19.6 -23.05Q19.9 -22.7 19.95 -22.3L20 -21.6Q20 -21 19.5 -20.25Q19.05 -19.55 18.45 -18.85L17.4 -17.6Q16.9 -17.05 16.8 -16.8Q16.8 -16 16.9 -15.35L17.2 -14.1L17.6 -12.8L18 -11.25Q18.2 -10.35 18.3 -9.15Q18.4 -8 18.4 -6.4Q19.3 -7 20.35 -7.45L22.5 -8.45L24.8 -9.65Q26 -10.3 27.2 -11.2L27.25 -5.6Q25.7 -4.4 23.65 -3.35Q21.6 -2.3 19.35 -1.5Q17.15 -0.7 14.85 -0.2Q12.55 0.25 10.5 0.25Q9.05 0.25 7.75 0Q6.5 -0.3 5.5 -0.9Q4.55 -1.5 3.95 -2.45Q3.35 -3.4 3.25 -4.75L2.55 -4.6L1.9 -4.6L1.15 -4.6Q0.8 -4.65 0.55 -4.8Q0.3 -5 0.15 -5.35Q0 -5.7 0 -6.4Q0 -7 0.3 -7.5Q0.6 -8 1 -8.4L1.8 -9.1L2.4 -9.6M5.6 -6.4Q5.9 -6.4 6.25 -6L7.05 -5.2Q7.55 -4.75 8.15 -4.35Q8.8 -4 9.6 -4Q10.6 -4 11.2 -4.3Q11.85 -4.65 12.2 -5.15Q12.6 -5.7 12.75 -6.4Q12.9 -7.15 12.9 -7.9L12.8 -9.3Q12.75 -10 12.6 -10.6L12.3 -11.8L12 -12.8L5.6 -6.4" />
</g>
<g id="PathID_38" transform="matrix(0.503157, 0, 0, 0.39552, 165.3, 106.6)" opacity="1">
</g>
<g id="PathID_39" transform="matrix(0.503157, 0, 0, 0.39552, 176.1, 106.6)" opacity="1">
<path style="fill:#C3A3BD;fill-opacity:1" d="M11.65 0Q9.3 0 7.5 -0.85Q5.75 -1.7 4.55 -3.1Q3.4 -4.55 2.8 -6.45Q2.25 -8.35 2.25 -10.4Q2.25 -11.8 2.5 -13.35Q2.8 -14.95 3.35 -16.45Q3.9 -17.95 4.75 -19.3Q5.6 -20.65 6.75 -21.7Q7.9 -22.75 9.3 -23.35Q10.7 -23.95 12.45 -23.95Q13.85 -23.95 15.05 -23.5Q16.25 -23.05 17.1 -22.25Q18 -21.45 18.5 -20.3Q19 -19.15 19 -17.7Q19 -16.15 18.25 -14.6Q17.5 -13.05 16.15 -11.65Q14.8 -10.3 12.9 -9.2Q11.05 -8.15 8.9 -7.55Q9.25 -6.9 9.6 -6.45Q10 -6 10.35 -5.75Q10.75 -5.5 11.15 -5.4Q11.55 -5.3 12.05 -5.3Q13.55 -5.3 15.2 -5.9Q16.85 -6.5 18.4 -7.4Q20 -8.3 21.4 -9.35Q22.8 -10.4 23.8 -11.35L27 -8Q24.8 -5.75 22.35 -4L20 -2.5Q18.8 -1.8 17.4 -1.2Q16.05 -0.65 14.6 -0.3Q13.15 0 11.65 0M8.3 -11.75Q9.2 -11.75 10.25 -12.2Q11.35 -12.65 12.25 -13.35Q13.15 -14.1 13.75 -14.95Q14.4 -15.8 14.4 -16.6Q14.4 -17.75 14 -18.45Q13.6 -19.2 13 -19.2Q11.9 -19.2 11.15 -18.8Q10.4 -18.4 9.85 -17.75Q9.35 -17.1 9.05 -16.3Q8.75 -15.5 8.55 -14.65L8.35 -13.05L8.3 -11.75" />
</g>
<g id="PathID_40" transform="matrix(0.503157, 0, 0, 0.39552, 176.1, 106.6)" opacity="1">
</g>
<g id="PathID_41" transform="matrix(0.503157, 0, 0, 0.39552, 186, 106.6)" opacity="1">
<path style="fill:#C3A3BD;fill-opacity:1" d="M3.2 -5.2Q3.2 -6.85 3.4 -9L3.9 -13.4L4.55 -17.7L5.3 -21.3Q5.55 -22.45 6.35 -23.2Q7.15 -24 8.5 -24Q9.85 -24 10.35 -23.15Q10.9 -22.35 10.9 -20.95L10.8 -19.95L10.6 -18.55L10.35 -16.95L10.15 -15.45L9.95 -14.25L9.9 -13.6L10.4 -13.6L10.85 -14.45L11.6 -15.9L12.5 -17.55L13.4 -19.25L14.2 -20.7L14.75 -21.65Q15.55 -23 16.55 -23.5Q17.6 -24 18.85 -24Q20.1 -24 20.8 -22.95Q21.55 -21.9 21.55 -20.05L21.45 -19.1L21.15 -17.55L20.75 -15.55L20.35 -13.35L20.1 -11.15L20 -9.15Q20 -7.6 20.35 -6.6Q20.75 -5.6 21.6 -5.6Q21.95 -5.6 22.45 -5.8L23.5 -6.4L24.65 -7.2L25.8 -8.2Q27.15 -9.4 28.6 -10.85L29 -5.25L27.75 -4.3L25.65 -2.75Q24.6 -2 23.45 -1.35Q22.3 -0.75 21.05 -0.35Q19.8 0 18.45 0Q17.05 0 16.1 -1.95Q15.2 -3.95 15.2 -7.8Q15.2 -9.3 15.4 -11L15.9 -14.75L15.5 -14.75L8.95 -1.75Q8.45 -0.75 7.8 -0.35Q7.2 0 6.35 0Q5.35 0 4.7 -0.4Q4.1 -0.85 3.75 -1.6Q3.4 -2.35 3.3 -3.25Q3.2 -4.2 3.2 -5.2M18.7 -32.65L19.3 -33.4L19.85 -34.2L20.5 -35.15Q21 -35.95 21.75 -36.35Q22.5 -36.75 23.2 -36.75Q24.05 -36.75 24.65 -36.25Q25.3 -35.8 25.3 -34.9Q25.3 -34.3 24.95 -33.6L24.15 -32.1Q23.7 -31.25 22.95 -30.4Q22.25 -29.55 21.3 -28.95Q20.35 -28.35 19.15 -28.35Q18.35 -28.35 17.7 -28.55Q17.1 -28.8 16.25 -29.35L14.25 -30.85L11.2 -33.25L10.6 -32.5L9.95 -31.7L9.35 -30.75Q8.85 -29.95 8.1 -29.55Q7.4 -29.2 6.65 -29.2Q5.8 -29.2 5.2 -29.65Q4.6 -30.15 4.6 -31Q4.6 -31.65 4.95 -32.35L5.7 -33.8Q6.2 -34.7 6.9 -35.5Q7.6 -36.35 8.55 -36.95Q9.5 -37.55 10.75 -37.55Q11.5 -37.55 12.15 -37.35Q12.8 -37.15 13.6 -36.6Q14.45 -36.05 15.6 -35.1L18.7 -32.65" />
</g>
<g id="PathID_42" transform="matrix(0.503157, 0, 0, 0.39552, 186, 106.6)" opacity="1">
</g>
<g id="PathID_43" transform="matrix(0.503157, 0, 0, 0.39552, 197.65, 106.6)" opacity="1">
<path style="fill:#C3A3BD;fill-opacity:1" d="M18.55 -18.7Q19.25 -17.25 19.6 -15.65Q20 -14.05 20 -12.55Q20 -11.1 19.65 -9.6Q19.35 -8.1 18.7 -6.7Q18.1 -5.3 17.2 -4.05Q16.35 -2.85 15.2 -1.95Q14.05 -1.05 12.7 -0.5Q11.35 0 9.85 0Q7.65 0 6.05 -0.95Q4.5 -1.9 3.5 -3.45Q2.5 -5 2.05 -6.95Q1.6 -8.9 1.6 -10.9Q1.6 -13.65 2.4 -16.05Q3.25 -18.45 4.75 -20.2Q6.3 -21.95 8.5 -22.95Q10.75 -24 13.55 -24Q15.9 -24 17.95 -23.25Q20.05 -22.5 21.85 -21.25Q23.7 -20.05 25.25 -18.45Q26.8 -16.85 28.15 -15.15L27.7 -11.6Q27 -12.5 25.85 -13.55Q24.7 -14.6 23.4 -15.6L20.9 -17.5L18.75 -19L18.55 -18.7M10.8 -4.8Q11.65 -4.8 12.45 -5.65Q13.25 -6.5 13.85 -7.8Q14.45 -9.15 14.8 -10.7Q15.2 -12.3 15.2 -13.75Q15.2 -14.9 15 -15.9Q14.85 -16.9 14.5 -17.6Q14.15 -18.35 13.6 -18.75Q13.05 -19.2 12.25 -19.2Q11.25 -19.2 10.3 -18.3Q9.4 -17.45 8.7 -16.05Q8 -14.7 7.6 -13.05Q7.2 -11.4 7.2 -9.9Q7.2 -8.85 7.4 -7.9Q7.6 -7 8 -6.3Q8.45 -5.6 9.15 -5.2Q9.85 -4.8 10.8 -4.8" />
</g>
<g id="PathID_44" transform="matrix(0.503157, 0, 0, 0.39552, 197.65, 106.6)" opacity="1">
</g>
<g id="PathID_45" transform="matrix(0.503157, 0, 0, 0.39552, 208.6, 106.6)" opacity="1">
<path style="fill:#C3A3BD;fill-opacity:1" d="M2.4 -9.6L4.65 -11.6Q5.55 -12.4 6.15 -13.05Q6.8 -13.7 7.3 -14.35L8.5 -15.95L10.2 -18.25L12.8 -21.6L13.55 -22.45Q13.95 -22.9 14.4 -23.2Q14.9 -23.55 15.5 -23.75Q16.1 -24 16.8 -24Q18 -24 18.65 -23.7Q19.3 -23.45 19.6 -23.05Q19.9 -22.7 19.95 -22.3L20 -21.6Q20 -21 19.5 -20.25Q19.05 -19.55 18.45 -18.85L17.4 -17.6Q16.9 -17.05 16.8 -16.8Q16.8 -16 16.9 -15.35L17.2 -14.1L17.6 -12.8L18 -11.25Q18.2 -10.35 18.3 -9.15Q18.4 -8 18.4 -6.4Q19.3 -7 20.35 -7.45L22.5 -8.45L24.8 -9.65Q26 -10.3 27.2 -11.2L27.25 -5.6Q25.7 -4.4 23.65 -3.35Q21.6 -2.3 19.35 -1.5Q17.15 -0.7 14.85 -0.2Q12.55 0.25 10.5 0.25Q9.05 0.25 7.75 0Q6.5 -0.3 5.5 -0.9Q4.55 -1.5 3.95 -2.45Q3.35 -3.4 3.25 -4.75L2.55 -4.6L1.9 -4.6L1.15 -4.6Q0.8 -4.65 0.55 -4.8Q0.3 -5 0.15 -5.35Q0 -5.7 0 -6.4Q0 -7 0.3 -7.5Q0.6 -8 1 -8.4L1.8 -9.1L2.4 -9.6M5.6 -6.4Q5.9 -6.4 6.25 -6L7.05 -5.2Q7.55 -4.75 8.15 -4.35Q8.8 -4 9.6 -4Q10.6 -4 11.2 -4.3Q11.85 -4.65 12.2 -5.15Q12.6 -5.7 12.75 -6.4Q12.9 -7.15 12.9 -7.9L12.8 -9.3Q12.75 -10 12.6 -10.6L12.3 -11.8L12 -12.8L5.6 -6.4" />
</g>
<g id="PathID_46" transform="matrix(0.503157, 0, 0, 0.39552, 208.6, 106.6)" opacity="1">
</g>
<g id="PathID_47" transform="matrix(0.503157, 0, 0, 0.39552, 226.25, 106.6)" opacity="1">
<path style="fill:#C3A3BD;fill-opacity:1" d="M14.2 -18.9Q12.55 -18.1 11.25 -16.75Q9.95 -15.45 9.1 -13.9Q8.25 -12.4 7.8 -10.85Q7.35 -9.3 7.35 -8.05L7.45 -7.05Q7.55 -6.55 7.85 -6.15Q8.15 -5.75 8.7 -5.5Q9.25 -5.25 10.15 -5.25Q10.6 -5.25 11 -5.45Q11.45 -5.7 11.85 -6.05L12.6 -6.9Q13 -7.35 13.3 -7.85Q14 -9 14.55 -10.45L14.45 -11.55L14.35 -13.25L14.3 -15.2L14.25 -17L14.2 -18.35L14.2 -18.9M31.4 -4.9Q29.6 -3.5 27.9 -2.45L26.35 -1.55L24.75 -0.75L23.25 -0.2Q22.55 0 21.9 0L20.85 -0.15Q20.2 -0.3 19.35 -0.75Q18.55 -1.25 17.75 -2.1Q16.95 -3 16.35 -4.45Q15.4 -3.55 14.35 -2.7Q13.35 -1.9 12.2 -1.3Q11.1 -0.7 9.95 -0.35Q8.85 0 7.7 0Q6.05 0 4.85 -0.7Q3.7 -1.4 2.9 -2.55Q2.1 -3.7 1.7 -5.15Q1.35 -6.65 1.35 -8.25Q1.35 -9.85 1.75 -11.45Q2.15 -13.1 2.95 -14.65Q3.75 -16.2 4.85 -17.55Q6 -18.9 7.4 -19.95Q8.85 -21.05 10.5 -21.75Q12.2 -22.45 14.1 -22.6Q14.15 -25.8 14.65 -28.9Q15.15 -32.05 15.95 -34.85Q16.8 -37.7 17.9 -40.1Q19.05 -42.5 20.35 -44.25Q21.7 -46 23.2 -47Q24.7 -48 26.3 -48Q27.45 -48 28.25 -47.35Q29.1 -46.75 29.6 -45.75Q30.15 -44.75 30.35 -43.4Q30.6 -42.05 30.6 -40.65L30.5 -38.85Q30.2 -35.3 29.3 -32.15Q28.45 -29.05 27.25 -26.05Q26.1 -23.1 24.7 -20.15Q23.35 -17.25 22.05 -14.1L21.75 -13.25L21.55 -12.15L21.35 -10.95L21.3 -9.75L21.35 -8.4Q21.45 -7.75 21.65 -7.2Q21.85 -6.7 22.2 -6.4Q22.55 -6.1 23.05 -6.1Q23.5 -6.1 24.05 -6.3L25.25 -6.8L26.5 -7.55L27.75 -8.4Q29.15 -9.4 30.65 -10.65L31.4 -4.9M25.95 -37Q26.1 -38.75 26.1 -39.8Q26.1 -41.15 25.85 -41.65Q25.6 -42.2 25.15 -42.2Q24.35 -42.2 23.7 -41.15Q23.05 -40.15 22.55 -38.55Q22.05 -37 21.65 -35.1L21.05 -31.4L20.65 -28.2L20.45 -26.2L20.3 -23.85L20.2 -21.75L20.2 -20.15L20.2 -19.05L20.2 -18.8Q21.6 -22.05 22.8 -25.3L23.8 -28.15Q24.35 -29.7 24.75 -31.2Q25.2 -32.75 25.5 -34.2Q25.8 -35.7 25.95 -37" />
</g>
<g id="PathID_48" transform="matrix(0.503157, 0, 0, 0.39552, 226.25, 106.6)" opacity="1">
</g>
<g id="PathID_49" transform="matrix(0.503157, 0, 0, 0.39552, 239.7, 106.6)" opacity="1">
<path style="fill:#C3A3BD;fill-opacity:1" d="M11.65 0Q9.3 0 7.5 -0.85Q5.75 -1.7 4.55 -3.1Q3.4 -4.55 2.8 -6.45Q2.25 -8.35 2.25 -10.4Q2.25 -11.8 2.5 -13.35Q2.8 -14.95 3.35 -16.45Q3.9 -17.95 4.75 -19.3Q5.6 -20.65 6.75 -21.7Q7.9 -22.75 9.3 -23.35Q10.7 -23.95 12.45 -23.95Q13.85 -23.95 15.05 -23.5Q16.25 -23.05 17.1 -22.25Q18 -21.45 18.5 -20.3Q19 -19.15 19 -17.7Q19 -16.15 18.25 -14.6Q17.5 -13.05 16.15 -11.65Q14.8 -10.3 12.9 -9.2Q11.05 -8.15 8.9 -7.55Q9.25 -6.9 9.6 -6.45Q10 -6 10.35 -5.75Q10.75 -5.5 11.15 -5.4Q11.55 -5.3 12.05 -5.3Q13.55 -5.3 15.2 -5.9Q16.85 -6.5 18.4 -7.4Q20 -8.3 21.4 -9.35Q22.8 -10.4 23.8 -11.35L27 -8Q24.8 -5.75 22.35 -4L20 -2.5Q18.8 -1.8 17.4 -1.2Q16.05 -0.65 14.6 -0.3Q13.15 0 11.65 0M8.3 -11.75Q9.2 -11.75 10.25 -12.2Q11.35 -12.65 12.25 -13.35Q13.15 -14.1 13.75 -14.95Q14.4 -15.8 14.4 -16.6Q14.4 -17.75 14 -18.45Q13.6 -19.2 13 -19.2Q11.9 -19.2 11.15 -18.8Q10.4 -18.4 9.85 -17.75Q9.35 -17.1 9.05 -16.3Q8.75 -15.5 8.55 -14.65L8.35 -13.05L8.3 -11.75" />
</g>
<g id="PathID_50" transform="matrix(0.503157, 0, 0, 0.39552, 239.7, 106.6)" opacity="1">
</g>
<g id="PathID_51" transform="matrix(0.503157, 0, 0, 0.39552, 256.4, 106.6)" opacity="1">
<path style="fill:#C3A3BD;fill-opacity:1" d="M11 -2.45Q10.9 -1.7 10.5 -1.2Q10.15 -0.75 9.6 -0.45Q9.1 -0.2 8.5 -0.05L7.35 0.05Q6.7 0.05 6.05 -0.1Q5.45 -0.25 4.95 -0.5Q4.5 -0.8 4.2 -1.2Q3.95 -1.65 3.95 -2.15Q3.95 -3.2 4.05 -4.05L4.35 -5.8Q5.05 -8.7 5.55 -11.2Q6.1 -13.75 6.45 -16Q6.85 -18.25 7.1 -20.35Q7.4 -22.45 7.6 -24.6Q7.85 -26.75 8 -29L8.4 -33.9L8.4 -34.45Q8.4 -34.8 8.3 -35.1Q8.25 -35.45 8.05 -35.65Q7.85 -35.9 7.5 -35.9Q6.9 -35.9 6 -35.45Q5.15 -35.05 4.2 -34.35Q3.25 -33.65 2.3 -32.7Q1.35 -31.8 0.55 -30.7Q0.4 -30.35 0.05 -30.15Q-0.25 -30 -0.65 -30Q-0.75 -30 -0.9 -30.2L-1.15 -30.75L-1.3 -31.35L-1.4 -32Q-1.4 -32.15 -1.3 -32.25Q-0.4 -35.2 0.7 -37.15Q1.85 -39.15 3.1 -40.35Q4.4 -41.55 5.7 -42.05Q7 -42.55 8.2 -42.55Q9.75 -42.55 10.75 -41.95Q11.8 -41.35 12.4 -40.3Q13 -39.25 13.25 -37.75Q13.5 -36.25 13.5 -34.4Q13.5 -33 13.25 -31.1Q13.05 -29.25 12.7 -27.2L11.95 -23.05L11.2 -19.2Q12 -22.5 13.05 -25.55Q14.15 -28.65 15.45 -31.3Q16.75 -33.95 18.2 -36.1Q19.65 -38.3 21.15 -39.85Q22.7 -41.4 24.25 -42.25Q25.85 -43.1 27.4 -43.1Q28.55 -43.1 29.5 -42.6Q30.5 -42.1 31.2 -41.05Q31.9 -40 32.3 -38.4Q32.7 -36.8 32.7 -34.6L32.65 -33.95L32.55 -33L32.4 -31.8L32.25 -30.55L31.8 -27.3L32.35 -27.3Q33.3 -31 34.7 -33.95Q36.15 -36.9 37.9 -38.95Q39.7 -41.05 41.75 -42.15Q43.8 -43.25 46 -43.25Q47.55 -43.25 48.7 -42.35Q49.9 -41.45 50.7 -39.9Q51.5 -38.35 51.9 -36.3Q52.35 -34.25 52.35 -31.95Q52.35 -29.8 52.05 -27.5Q51.8 -25.25 51.35 -23.05Q50.95 -20.85 50.45 -18.7L49.5 -14.7L48.8 -11.15Q48.55 -9.55 48.55 -8.4Q48.55 -6.9 49.05 -6.25Q49.6 -5.6 50.65 -5.6Q51.2 -5.6 51.85 -5.9Q52.5 -6.2 53.1 -6.7Q53.75 -7.25 54.35 -7.9L55.6 -9.25Q56.9 -10.85 58.2 -12.95L58.45 -12.4L59 -10.95L60.15 -8Q58.9 -5.8 57.55 -4.25Q56.25 -2.75 54.85 -1.8Q53.5 -0.85 52.05 -0.4Q50.65 0 49.25 0Q47.9 0 46.6 -0.45Q45.35 -0.95 44.35 -1.85Q43.35 -2.8 42.75 -4.2Q42.15 -5.6 42.15 -7.4L42.15 -7.8L42.2 -8.25Q42.3 -9.95 42.6 -11.8L43.35 -15.7L44.2 -19.75L45 -23.9Q45.4 -26 45.65 -28Q45.9 -30 45.9 -31.85Q45.9 -33 45.8 -33.9Q45.75 -34.8 45.5 -35.45Q45.3 -36.1 44.85 -36.45Q44.45 -36.8 43.75 -36.8Q42.45 -36.8 41.25 -35.85Q40.1 -34.95 39.05 -33.3Q38 -31.7 37.05 -29.45Q36.15 -27.25 35.35 -24.65Q34.55 -22.05 33.85 -19.2Q33.15 -16.4 32.55 -13.5L31.4 -7.85L30.45 -2.55Q30.25 -1.85 29.8 -1.35Q29.4 -0.85 28.85 -0.55Q28.35 -0.25 27.75 -0.1L26.55 0Q26 0 25.5 -0.2Q25 -0.4 24.6 -0.8Q24.2 -1.25 23.95 -1.9Q23.75 -2.6 23.75 -3.6Q23.75 -4.25 24.05 -5.8L24.8 -9.6L25.8 -14.45Q26.35 -17.1 26.8 -19.85Q27.25 -22.6 27.55 -25.25Q27.85 -27.95 27.85 -30.2Q27.85 -31.75 27.75 -32.95Q27.7 -34.2 27.4 -35.05Q27.15 -35.9 26.65 -36.35Q26.15 -36.8 25.3 -36.8Q24.6 -36.8 23.7 -35.85Q22.8 -34.9 21.75 -33.2Q20.7 -31.55 19.6 -29.25Q18.5 -27 17.4 -24.35L15.3 -18.9Q14.3 -16.05 13.45 -13.15Q12.6 -10.3 11.95 -7.55Q11.3 -4.85 11 -2.45" />
</g>
<g id="PathID_52" transform="matrix(0.503157, 0, 0, 0.39552, 256.4, 106.6)" opacity="1">
</g>
<g id="PathID_53" transform="matrix(0.503157, 0, 0, 0.39552, 283.8, 106.6)" opacity="1">
<path style="fill:#C3A3BD;fill-opacity:1" d="M29.35 -6.1L27.8 -4.2Q26.85 -3.15 25.65 -2.15Q24.45 -1.2 23.05 -0.5Q21.7 0.15 20.3 0.15Q18.65 0.15 17.55 -0.9Q16.45 -2 15.65 -4Q15.05 -3.3 14.15 -2.55Q13.3 -1.85 12.25 -1.25Q11.25 -0.7 10.1 -0.3Q9 0.05 7.85 0.05Q6.65 0.05 5.5 -0.4Q4.4 -0.9 3.5 -1.8Q2.65 -2.75 2.1 -4.05Q1.6 -5.35 1.6 -7Q1.6 -8.9 2.1 -10.85Q2.65 -12.85 3.55 -14.7Q4.5 -16.6 5.75 -18.25Q7 -19.95 8.5 -21.2Q10 -22.45 11.65 -23.2Q13.35 -23.95 15.05 -23.95Q15.65 -23.95 15.95 -23.7Q16.3 -23.5 16.5 -23.2L16.9 -22.6Q17.1 -22.35 17.4 -22.25L18 -22.05L18.65 -22.05L19.2 -22.05L19.8 -22.05Q20.15 -22.05 20.45 -21.95Q20.8 -21.9 21.05 -21.65Q21.3 -21.4 21.45 -20.95Q21.6 -20.5 21.6 -19.75Q21.6 -18.55 21.35 -17.05L20.8 -14.05L20.25 -11Q20 -9.45 20 -8.1Q20 -6.9 20.2 -6.25Q20.4 -5.6 21.1 -5.6Q21.65 -5.6 22.2 -5.85Q22.8 -6.1 23.35 -6.5L24.55 -7.5L25.65 -8.6Q26.9 -9.95 28.15 -11.65L29.35 -6.1M8 -8.1L8.05 -6.85Q8.15 -6.3 8.35 -5.8Q8.6 -5.35 8.95 -5.05Q9.35 -4.8 9.95 -4.8Q10.85 -4.8 11.6 -5.6Q12.35 -6.4 12.9 -7.5Q13.45 -8.65 13.8 -9.85Q14.15 -11.05 14.25 -11.85L15.75 -19.2Q14.75 -19.2 13.75 -18.65Q12.8 -18.15 11.9 -17.25Q11.05 -16.4 10.3 -15.25Q9.6 -14.15 9.05 -12.9Q8.55 -11.7 8.25 -10.45Q8 -9.2 8 -8.1" />
</g>
<g id="PathID_54" transform="matrix(0.503157, 0, 0, 0.39552, 283.8, 106.6)" opacity="1">
</g>
<g id="PathID_55" transform="matrix(0.503157, 0, 0, 0.39552, 295.45, 106.6)" opacity="1">
<path style="fill:#C3A3BD;fill-opacity:1" d="M3.2 -5.2L3.3 -7.75L3.65 -10.85L4.15 -14.15L4.75 -17.35L5.4 -20.15L6.05 -22.3Q6.25 -22.85 6.45 -23.15Q6.65 -23.5 6.9 -23.65Q7.2 -23.85 7.55 -23.9Q7.95 -24 8.55 -24Q9.2 -24 9.55 -23.9Q9.9 -23.85 10.05 -23.6Q10.25 -23.4 10.3 -22.95L10.35 -21.7L10.35 -19.45L10.4 -16.9L10.65 -16.9L11.75 -19.1Q12.4 -20.35 13.2 -21.4Q14.05 -22.5 15.1 -23.25Q16.15 -24 17.55 -24Q18 -24 18.45 -23.8Q18.9 -23.65 19.25 -23.35Q19.6 -23.05 19.8 -22.6Q20 -22.2 20 -21.65Q20 -21.2 19.85 -20.45L19.6 -18.85L19.3 -17.2L19.2 -15.9Q19.2 -15 19.35 -14.4Q19.55 -13.8 19.8 -13.45Q20.1 -13.1 20.45 -12.95Q20.85 -12.8 21.25 -12.8Q22.35 -12.8 23.55 -13.3Q24.75 -13.8 25.75 -14.4Q26.95 -15.15 28.05 -16.05L27.7 -10.2L26.2 -9.25L24.45 -8.25Q23.5 -7.8 22.5 -7.5Q21.5 -7.2 20.45 -7.2Q18.55 -7.2 17.4 -7.95Q16.25 -8.7 15.55 -9.95Q14.9 -11.2 14.55 -12.7Q14.25 -14.25 14.05 -15.85L13.65 -15.85L9.2 -3.35Q8.85 -2.4 8.5 -1.75Q8.2 -1.1 7.85 -0.7Q7.55 -0.3 7.15 -0.15Q6.8 0 6.35 0Q5.35 0 4.7 -0.4Q4.1 -0.85 3.75 -1.6Q3.4 -2.35 3.3 -3.25Q3.2 -4.2 3.2 -5.2" />
</g>
<g id="PathID_56" transform="matrix(0.503157, 0, 0, 0.39552, 295.45, 106.6)" opacity="1">
</g>
<g id="PathID_57" transform="matrix(0.503157, 0, 0, 0.39552, 306.25, 106.6)" opacity="1">
<path style="fill:#C3A3BD;fill-opacity:1" d="M16 -19.2Q16.2 -20.05 16.7 -20.7Q17.2 -21.35 17.85 -21.8Q18.55 -22.25 19.25 -22.45Q20 -22.7 20.65 -22.7Q21.4 -22.7 21.9 -22.35Q22.45 -22.05 22.45 -21.3L22.4 -20.8L22 -19L21.5 -16.45L20.95 -13.45L20.45 -10.3L19.2 -2.35Q19.95 -2.75 20.8 -3.35Q21.7 -4 22.75 -5.05Q23.85 -6.1 25.15 -7.7Q26.5 -9.3 28.15 -11.65L29.35 -6.1Q28.9 -5.35 28.15 -4.5Q27.45 -3.7 26.6 -2.9L24.8 -1.3L22.95 0.1Q20.85 1.7 18.4 3.2Q17.9 5.9 17.25 8.4Q16.6 10.95 15.7 13.15Q14.85 15.4 13.7 17.25Q12.55 19.1 11.1 20.4Q9.7 21.75 7.9 22.45Q6.15 23.2 4 23.2Q3.15 23.2 2.15 23Q1.15 22.85 0.3 22.3Q-0.5 21.8 -1.05 20.8Q-1.6 19.85 -1.6 18.25Q-1.6 17.1 -1 15.7Q-0.45 14.3 0.55 12.7Q1.55 11.15 2.9 9.45Q4.3 7.8 5.9 6.1Q7.5 4.45 9.25 2.8L12.85 -0.3L13.5 -2.6Q12.15 -1.4 10.7 -0.65Q9.25 0.05 7.85 0.05Q6.65 0.05 5.5 -0.4Q4.4 -0.9 3.5 -1.8Q2.65 -2.75 2.1 -4.05Q1.6 -5.35 1.6 -7Q1.6 -9.2 1.8 -11Q2 -12.85 2.4 -14.5Q2.8 -16.15 3.4 -17.65Q4 -19.2 4.8 -20.8Q5.35 -21.9 6.4 -22.5Q7.5 -23.1 8.55 -23.1Q9.4 -23.1 10 -22.65Q10.65 -22.2 10.65 -21.3L10.6 -20.65L10.4 -20Q9.95 -18.85 9.5 -17.25Q9.05 -15.7 8.7 -14.05L8.2 -10.85Q8 -9.3 8 -8.1L8.05 -6.85Q8.15 -6.3 8.35 -5.8Q8.6 -5.35 8.95 -5.05Q9.35 -4.8 9.95 -4.8Q10.85 -4.8 11.6 -5.6Q12.35 -6.4 12.9 -7.5Q13.45 -8.65 13.8 -9.85Q14.15 -11.05 14.25 -11.85L16 -19.2M4.3 18.4Q5.35 18.4 6.25 17.8Q7.2 17.2 8 16.2Q8.8 15.2 9.45 13.9Q10.1 12.65 10.6 11.3Q11.1 9.95 11.45 8.65L12 6.4Q11 7.05 10 7.95Q9 8.85 8 9.9Q7.05 10.95 6.2 12.05Q5.35 13.15 4.7 14.15Q4.05 15.15 3.65 16Q3.3 16.9 3.3 17.5Q3.3 18.4 4.3 18.4" />
</g>
<g id="PathID_58" transform="matrix(0.503157, 0, 0, 0.39552, 306.25, 106.6)" opacity="1">
</g>
<g id="PathID_59" transform="matrix(0.503157, 0, 0, 0.39552, 317.9, 106.6)" opacity="1">
<path style="fill:#C3A3BD;fill-opacity:1" d="M3.2 -5.2Q3.2 -6.85 3.4 -9L3.9 -13.4L4.55 -17.7L5.3 -21.3Q5.55 -22.45 6.35 -23.2Q7.15 -24 8.5 -24Q9.85 -24 10.35 -23.15Q10.9 -22.35 10.9 -20.95L10.8 -19.95L10.6 -18.55L10.35 -16.95L10.15 -15.45L9.95 -14.25L9.9 -13.6L10.4 -13.6L10.85 -14.45L11.6 -15.9L12.5 -17.55L13.4 -19.25L14.2 -20.7L14.75 -21.65Q15.55 -23 16.55 -23.5Q17.6 -24 18.85 -24Q20.1 -24 20.8 -22.95Q21.55 -21.9 21.55 -20.05L21.45 -19.1L21.15 -17.55L20.75 -15.55L20.35 -13.35L20.1 -11.15L20 -9.15Q20 -7.6 20.35 -6.6Q20.75 -5.6 21.6 -5.6Q21.95 -5.6 22.45 -5.8L23.5 -6.4L24.65 -7.2L25.8 -8.2Q27.15 -9.4 28.6 -10.85L29 -5.25L27.75 -4.3L25.65 -2.75Q24.6 -2 23.45 -1.35Q22.3 -0.75 21.05 -0.35Q19.8 0 18.45 0Q17.05 0 16.1 -1.95Q15.2 -3.95 15.2 -7.8Q15.2 -9.3 15.4 -11L15.9 -14.75L15.5 -14.75L8.95 -1.75Q8.45 -0.75 7.8 -0.35Q7.2 0 6.35 0Q5.35 0 4.7 -0.4Q4.1 -0.85 3.75 -1.6Q3.4 -2.35 3.3 -3.25Q3.2 -4.2 3.2 -5.2" />
</g>
<g id="PathID_60" transform="matrix(0.503157, 0, 0, 0.39552, 317.9, 106.6)" opacity="1">
</g>
<g id="PathID_61" transform="matrix(0.503157, 0, 0, 0.39552, 329.55, 106.6)" opacity="1">
<path style="fill:#C3A3BD;fill-opacity:1" d="M11.65 0Q9.3 0 7.5 -0.85Q5.75 -1.7 4.55 -3.1Q3.4 -4.55 2.8 -6.45Q2.25 -8.35 2.25 -10.4Q2.25 -11.8 2.5 -13.35Q2.8 -14.95 3.35 -16.45Q3.9 -17.95 4.75 -19.3Q5.6 -20.65 6.75 -21.7Q7.9 -22.75 9.3 -23.35Q10.7 -23.95 12.45 -23.95Q13.85 -23.95 15.05 -23.5Q16.25 -23.05 17.1 -22.25Q18 -21.45 18.5 -20.3Q19 -19.15 19 -17.7Q19 -16.15 18.25 -14.6Q17.5 -13.05 16.15 -11.65Q14.8 -10.3 12.9 -9.2Q11.05 -8.15 8.9 -7.55Q9.25 -6.9 9.6 -6.45Q10 -6 10.35 -5.75Q10.75 -5.5 11.15 -5.4Q11.55 -5.3 12.05 -5.3Q13.55 -5.3 15.2 -5.9Q16.85 -6.5 18.4 -7.4Q20 -8.3 21.4 -9.35Q22.8 -10.4 23.8 -11.35L27 -8Q24.8 -5.75 22.35 -4L20 -2.5Q18.8 -1.8 17.4 -1.2Q16.05 -0.65 14.6 -0.3Q13.15 0 11.65 0M8.3 -11.75Q9.2 -11.75 10.25 -12.2Q11.35 -12.65 12.25 -13.35Q13.15 -14.1 13.75 -14.95Q14.4 -15.8 14.4 -16.6Q14.4 -17.75 14 -18.45Q13.6 -19.2 13 -19.2Q11.9 -19.2 11.15 -18.8Q10.4 -18.4 9.85 -17.75Q9.35 -17.1 9.05 -16.3Q8.75 -15.5 8.55 -14.65L8.35 -13.05L8.3 -11.75" />
</g>
<g id="PathID_62" transform="matrix(0.503157, 0, 0, 0.39552, 329.55, 106.6)" opacity="1">
</g>
<g id="PathID_63" transform="matrix(0.503157, 0, 0, 0.39552, 339.45, 106.6)" opacity="1">
<path style="fill:#C3A3BD;fill-opacity:1" d="M8.75 0Q7.4 0 6.25 -1.15Q5.1 -2.35 4.2 -4.35Q3.35 -6.35 2.85 -9Q2.4 -11.65 2.4 -14.55Q2.4 -16.75 2.7 -19.35Q3.05 -22 3.65 -24.75Q4.3 -27.55 5.15 -30.35Q6 -33.15 7.1 -35.7Q8.2 -38.3 9.45 -40.5Q10.75 -42.75 12.15 -44.4Q13.55 -46.1 15.05 -47.05Q16.6 -48 18.15 -48Q19.25 -48 19.95 -47.5Q20.65 -47 21.05 -46.2Q21.45 -45.4 21.6 -44.4Q21.75 -43.4 21.75 -42.35Q21.75 -40 21.2 -37.55Q20.7 -35.1 19.75 -32.65Q18.85 -30.2 17.65 -27.7L15.15 -22.8L12.55 -18L10.1 -13.4L9.8 -12.75L9.55 -11.85L9.3 -10.85L9.1 -9.85L9.1 -9.5Q9.1 -8.85 9.25 -8.25L9.6 -7.15L10 -6.35Q10.25 -6.1 10.45 -6.1Q10.9 -6.1 11.5 -6.3L12.8 -6.8L14.2 -7.6L15.65 -8.5Q17.2 -9.55 18.95 -10.9L21 -5.65Q18.75 -4.05 16.6 -2.8L14.6 -1.75Q13.6 -1.25 12.55 -0.85Q11.55 -0.45 10.55 -0.2Q9.6 0 8.75 0M8.8 -20L11.15 -24.5Q12.45 -27 13.55 -29.65Q14.7 -32.3 15.5 -34.9Q16.35 -37.55 16.55 -39.85L16.5 -41.05Q16.5 -41.6 16.3 -41.6Q15.55 -41.6 14.7 -40.65Q13.9 -39.7 13.05 -38.1Q12.2 -36.5 11.45 -34.35Q10.7 -32.25 10.1 -29.85Q9.5 -27.45 9.15 -24.9Q8.8 -22.4 8.8 -20" />
</g>
<g id="PathID_64" transform="matrix(0.503157, 0, 0, 0.39552, 339.45, 106.6)" opacity="1">
</g>
<g id="PathID_65" transform="matrix(0.503157, 0, 0, 0.39552, 346.7, 106.6)" opacity="1">
<path style="fill:#C3A3BD;fill-opacity:1" d="M8.75 0Q7.4 0 6.25 -1.15Q5.1 -2.35 4.2 -4.35Q3.35 -6.35 2.85 -9Q2.4 -11.65 2.4 -14.55Q2.4 -16.75 2.7 -19.35Q3.05 -22 3.65 -24.75Q4.3 -27.55 5.15 -30.35Q6 -33.15 7.1 -35.7Q8.2 -38.3 9.45 -40.5Q10.75 -42.75 12.15 -44.4Q13.55 -46.1 15.05 -47.05Q16.6 -48 18.15 -48Q19.25 -48 19.95 -47.5Q20.65 -47 21.05 -46.2Q21.45 -45.4 21.6 -44.4Q21.75 -43.4 21.75 -42.35Q21.75 -40 21.2 -37.55Q20.7 -35.1 19.75 -32.65Q18.85 -30.2 17.65 -27.7L15.15 -22.8L12.55 -18L10.1 -13.4L9.8 -12.75L9.55 -11.85L9.3 -10.85L9.1 -9.85L9.1 -9.5Q9.1 -8.85 9.25 -8.25L9.6 -7.15L10 -6.35Q10.25 -6.1 10.45 -6.1Q10.9 -6.1 11.5 -6.3L12.8 -6.8L14.2 -7.6L15.65 -8.5Q17.2 -9.55 18.95 -10.9L21 -5.65Q18.75 -4.05 16.6 -2.8L14.6 -1.75Q13.6 -1.25 12.55 -0.85Q11.55 -0.45 10.55 -0.2Q9.6 0 8.75 0M8.8 -20L11.15 -24.5Q12.45 -27 13.55 -29.65Q14.7 -32.3 15.5 -34.9Q16.35 -37.55 16.55 -39.85L16.5 -41.05Q16.5 -41.6 16.3 -41.6Q15.55 -41.6 14.7 -40.65Q13.9 -39.7 13.05 -38.1Q12.2 -36.5 11.45 -34.35Q10.7 -32.25 10.1 -29.85Q9.5 -27.45 9.15 -24.9Q8.8 -22.4 8.8 -20" />
</g>
<g id="PathID_66" transform="matrix(0.503157, 0, 0, 0.39552, 346.7, 106.6)" opacity="1">
</g>
<g id="PathID_67" transform="matrix(0.503157, 0, 0, 0.39552, 353.95, 106.6)" opacity="1">
<path style="fill:#C3A3BD;fill-opacity:1" d="M16 -19.2Q16.2 -20.05 16.7 -20.7Q17.2 -21.35 17.85 -21.8Q18.55 -22.25 19.25 -22.45Q20 -22.7 20.65 -22.7Q21.4 -22.7 21.9 -22.35Q22.45 -22.05 22.45 -21.3L22.4 -20.8L22 -19L21.5 -16.45L20.95 -13.45L20.45 -10.3L19.2 -2.35Q19.95 -2.75 20.8 -3.35Q21.7 -4 22.75 -5.05Q23.85 -6.1 25.15 -7.7Q26.5 -9.3 28.15 -11.65L29.35 -6.1Q28.9 -5.35 28.15 -4.5Q27.45 -3.7 26.6 -2.9L24.8 -1.3L22.95 0.1Q20.85 1.7 18.4 3.2Q17.9 5.9 17.25 8.4Q16.6 10.95 15.7 13.15Q14.85 15.4 13.7 17.25Q12.55 19.1 11.1 20.4Q9.7 21.75 7.9 22.45Q6.15 23.2 4 23.2Q3.15 23.2 2.15 23Q1.15 22.85 0.3 22.3Q-0.5 21.8 -1.05 20.8Q-1.6 19.85 -1.6 18.25Q-1.6 17.1 -1 15.7Q-0.45 14.3 0.55 12.7Q1.55 11.15 2.9 9.45Q4.3 7.8 5.9 6.1Q7.5 4.45 9.25 2.8L12.85 -0.3L13.5 -2.6Q12.15 -1.4 10.7 -0.65Q9.25 0.05 7.85 0.05Q6.65 0.05 5.5 -0.4Q4.4 -0.9 3.5 -1.8Q2.65 -2.75 2.1 -4.05Q1.6 -5.35 1.6 -7Q1.6 -9.2 1.8 -11Q2 -12.85 2.4 -14.5Q2.8 -16.15 3.4 -17.65Q4 -19.2 4.8 -20.8Q5.35 -21.9 6.4 -22.5Q7.5 -23.1 8.55 -23.1Q9.4 -23.1 10 -22.65Q10.65 -22.2 10.65 -21.3L10.6 -20.65L10.4 -20Q9.95 -18.85 9.5 -17.25Q9.05 -15.7 8.7 -14.05L8.2 -10.85Q8 -9.3 8 -8.1L8.05 -6.85Q8.15 -6.3 8.35 -5.8Q8.6 -5.35 8.95 -5.05Q9.35 -4.8 9.95 -4.8Q10.85 -4.8 11.6 -5.6Q12.35 -6.4 12.9 -7.5Q13.45 -8.65 13.8 -9.85Q14.15 -11.05 14.25 -11.85L16 -19.2M4.3 18.4Q5.35 18.4 6.25 17.8Q7.2 17.2 8 16.2Q8.8 15.2 9.45 13.9Q10.1 12.65 10.6 11.3Q11.1 9.95 11.45 8.65L12 6.4Q11 7.05 10 7.95Q9 8.85 8 9.9Q7.05 10.95 6.2 12.05Q5.35 13.15 4.7 14.15Q4.05 15.15 3.65 16Q3.3 16.9 3.3 17.5Q3.3 18.4 4.3 18.4" />
</g>
<g id="PathID_68" transform="matrix(0.503157, 0, 0, 0.39552, 353.95, 106.6)" opacity="1">
</g>
<g id="PathID_69" transform="matrix(0.503157, 0, 0, 0.39552, 372.4, 106.6)" opacity="1">
<path style="fill:#C3A3BD;fill-opacity:1" d="M45.6 -31.55Q45.6 -30.35 45.2 -29Q44.8 -27.7 43.95 -26.4Q43.15 -25.15 41.85 -23.95Q40.55 -22.75 38.75 -21.8Q36.95 -20.85 34.65 -20.2Q32.35 -19.55 29.5 -19.4Q31.25 -18.75 32.4 -17.7Q33.6 -16.7 34.35 -15.4Q35.15 -14.15 35.6 -12.75Q36.1 -11.35 36.4 -10L37 -7.4Q37.25 -6.2 37.6 -5.25Q38 -4.3 38.55 -3.75Q39.1 -3.2 40 -3.2Q40.85 -3.2 41.85 -3.45Q42.9 -3.75 43.95 -4.25Q45 -4.8 46.05 -5.5Q47.1 -6.25 48 -7.15L50.9 -2.25L50.4 -1.9L49.1 -1.05L47.05 0.05Q45.9 0.65 44.5 1.15Q43.1 1.7 41.55 2.05Q40 2.4 38.35 2.4Q36.55 2.4 35.25 1.5Q33.95 0.6 33.05 -0.85Q32.15 -2.35 31.55 -4.2Q30.95 -6.1 30.5 -8.05L29.65 -11.95Q29.3 -13.85 28.8 -15.3Q28.35 -16.8 27.7 -17.7Q27.05 -18.6 26.05 -18.6L24.5 -18.6Q24 -13.1 23.25 -8.75Q22.5 -4.45 21.25 -1.4Q20 1.6 18.15 3.2Q16.3 4.8 13.6 4.8Q11.6 4.8 9.9 4.05Q8.25 3.3 6.9 1.95Q5.6 0.65 4.6 -1.1Q3.6 -2.9 2.9 -4.95Q2.25 -7 1.9 -9.15Q1.6 -11.35 1.6 -13.5Q1.6 -17.35 2.55 -21.05Q3.5 -24.8 5.3 -28.1Q7.15 -31.4 9.7 -34.15Q12.3 -36.9 15.5 -38.9Q18.7 -40.95 22.5 -42.05Q26.3 -43.2 30.5 -43.2Q32.4 -43.2 34.25 -42.85Q36.1 -42.5 37.75 -41.8Q39.45 -41.15 40.85 -40.15Q42.3 -39.15 43.35 -37.85Q44.4 -36.55 45 -34.95Q45.6 -33.4 45.6 -31.55M30.05 -37.6Q25.95 -37.6 22.7 -36.45Q19.45 -35.3 17 -33.35Q14.55 -31.4 12.8 -28.8Q11.1 -26.25 10 -23.4Q8.95 -20.6 8.45 -17.7Q8 -14.8 8 -12.15Q8 -10.15 8.35 -8.1Q8.7 -6.05 9.45 -4.4Q10.2 -2.8 11.35 -1.8Q12.55 -0.8 14.25 -0.8Q15.1 -0.8 15.75 -1.45Q16.4 -2.1 16.9 -3.2Q17.4 -4.35 17.75 -5.8Q18.15 -7.25 18.4 -8.8L18.8 -12L19 -15L19.1 -17.5L19.15 -19.15Q17.2 -20.1 16.2 -20.9Q15.2 -21.7 15.2 -22.75L15.2 -23.35L15.35 -24Q15.5 -24.3 15.75 -24.5Q16 -24.7 16.4 -24.7L17.05 -24.65L18.15 -24.5L19.25 -24.35L19.9 -24.3L19.9 -24.8L20 -25.9L20.2 -27.4Q20.35 -28.2 20.65 -29Q20.95 -29.85 21.4 -30.5Q21.9 -31.15 22.55 -31.55Q23.2 -32 24.15 -32Q25.4 -32 25.8 -31.4Q26.25 -30.85 26.25 -30L26.25 -29.75Q26.2 -28.8 25.95 -27.25L25.45 -23.65Q29.55 -23.7 32.2 -24.45Q34.85 -25.2 36.4 -26.3Q37.95 -27.45 38.55 -28.75Q39.2 -30.1 39.2 -31.35Q39.2 -32.6 38.6 -33.7Q38 -34.85 36.85 -35.7Q35.7 -36.55 34 -37.05Q32.3 -37.6 30.05 -37.6" />
</g>
<g id="PathID_70" transform="matrix(0.503157, 0, 0, 0.39552, 372.4, 106.6)" opacity="1">
</g>
<g id="PathID_71" transform="matrix(0.503157, 0, 0, 0.39552, 393.75, 106.6)" opacity="1">
<path style="fill:#C3A3BD;fill-opacity:1" d="M18.55 -18.7Q19.25 -17.25 19.6 -15.65Q20 -14.05 20 -12.55Q20 -11.1 19.65 -9.6Q19.35 -8.1 18.7 -6.7Q18.1 -5.3 17.2 -4.05Q16.35 -2.85 15.2 -1.95Q14.05 -1.05 12.7 -0.5Q11.35 0 9.85 0Q7.65 0 6.05 -0.95Q4.5 -1.9 3.5 -3.45Q2.5 -5 2.05 -6.95Q1.6 -8.9 1.6 -10.9Q1.6 -13.65 2.4 -16.05Q3.25 -18.45 4.75 -20.2Q6.3 -21.95 8.5 -22.95Q10.75 -24 13.55 -24Q15.9 -24 17.95 -23.25Q20.05 -22.5 21.85 -21.25Q23.7 -20.05 25.25 -18.45Q26.8 -16.85 28.15 -15.15L27.7 -11.6Q27 -12.5 25.85 -13.55Q24.7 -14.6 23.4 -15.6L20.9 -17.5L18.75 -19L18.55 -18.7M10.8 -4.8Q11.65 -4.8 12.45 -5.65Q13.25 -6.5 13.85 -7.8Q14.45 -9.15 14.8 -10.7Q15.2 -12.3 15.2 -13.75Q15.2 -14.9 15 -15.9Q14.85 -16.9 14.5 -17.6Q14.15 -18.35 13.6 -18.75Q13.05 -19.2 12.25 -19.2Q11.25 -19.2 10.3 -18.3Q9.4 -17.45 8.7 -16.05Q8 -14.7 7.6 -13.05Q7.2 -11.4 7.2 -9.9Q7.2 -8.85 7.4 -7.9Q7.6 -7 8 -6.3Q8.45 -5.6 9.15 -5.2Q9.85 -4.8 10.8 -4.8" />
</g>
<g id="PathID_72" transform="matrix(0.503157, 0, 0, 0.39552, 393.75, 106.6)" opacity="1">
</g>
<g id="PathID_73" transform="matrix(0.503157, 0, 0, 0.39552, 404.7, 106.6)" opacity="1">
<path style="fill:#C3A3BD;fill-opacity:1" d="M0 0L0.1 -1.4L0.4 -3.85L0.85 -7.05L1.45 -10.6L2.15 -14.25L2.95 -17.65Q3.35 -19.25 3.75 -20.45Q4.15 -21.7 4.55 -22.4Q4.9 -22.95 5.35 -23.25Q5.85 -23.6 6.4 -23.75L7.6 -23.95L8.8 -24Q9.7 -24 10.05 -23.45Q10.45 -22.95 10.45 -22.35L10.3 -21.4L10 -20L9.6 -18.55L9.3 -17.6L7.9 -13.6L10.6 -13.9L13.45 -14.2Q15 -14.45 16.95 -15Q18.9 -15.6 21.6 -16.8L21.6 -12Q19.95 -11.1 18.25 -10.6Q16.6 -10.1 15.25 -9.9Q13.7 -9.6 12.2 -9.6Q12.8 -7.95 13.3 -6.2Q13.7 -4.7 14.05 -2.85Q14.4 -1.05 14.4 0.8L14.3 2.3Q14.25 3.5 14 5.1Q13.8 6.7 13.25 8.5Q12.75 10.3 11.85 11.75Q11 13.25 9.65 14.2Q8.3 15.2 6.4 15.2Q4.65 15.2 3.4 14.15Q2.2 13.15 1.4 11.2Q0.65 9.25 0.3 6.4Q0 3.6 0 0M7.15 -11.15Q6.5 -7.3 6.05 -3.35Q5.6 0.6 5.6 4.8Q5.6 6.2 5.75 7.1Q5.95 8 6.2 8.55Q6.45 9.15 6.7 9.35Q7 9.6 7.2 9.6Q8 9.6 8.5 8.7Q9 7.8 9.2 6.45Q9.45 5.15 9.5 3.6L9.6 0.8Q9.6 0.1 9.45 -0.8L9.2 -2.7L8.8 -4.7L8.35 -6.65L7.15 -11.15M5.55 -31Q5.55 -31.6 5.8 -32.3Q6.05 -33.05 6.6 -33.65Q7.15 -34.3 8.1 -34.75Q9.05 -35.2 10.45 -35.2Q11.3 -35.2 12.05 -35Q12.85 -34.8 13.4 -34.35Q14 -33.95 14.35 -33.25Q14.7 -32.6 14.7 -31.7Q14.7 -30.85 14.4 -30.05Q14.15 -29.25 13.55 -28.6Q12.95 -28 12 -27.6Q11.1 -27.2 9.85 -27.2Q7.65 -27.2 6.6 -28.25Q5.55 -29.3 5.55 -31" />
</g>
<g id="PathID_74" transform="matrix(0.503157, 0, 0, 0.39552, 404.7, 106.6)" opacity="1">
</g>
<g id="PathID_75" transform="matrix(0.503157, 0, 0, 0.39552, 413.15, 106.6)" opacity="1">
<path style="fill:#C3A3BD;fill-opacity:1" d="M29.35 -6.1L27.8 -4.2Q26.85 -3.15 25.65 -2.15Q24.45 -1.2 23.05 -0.5Q21.7 0.15 20.3 0.15Q18.65 0.15 17.55 -0.9Q16.45 -2 15.65 -4Q15.05 -3.3 14.15 -2.55Q13.3 -1.85 12.25 -1.25Q11.25 -0.7 10.1 -0.3Q9 0.05 7.85 0.05Q6.65 0.05 5.5 -0.4Q4.4 -0.9 3.5 -1.8Q2.65 -2.75 2.1 -4.05Q1.6 -5.35 1.6 -7Q1.6 -8.9 2.1 -10.85Q2.65 -12.85 3.55 -14.7Q4.5 -16.6 5.75 -18.25Q7 -19.95 8.5 -21.2Q10 -22.45 11.65 -23.2Q13.35 -23.95 15.05 -23.95Q15.65 -23.95 15.95 -23.7Q16.3 -23.5 16.5 -23.2L16.9 -22.6Q17.1 -22.35 17.4 -22.25L18 -22.05L18.65 -22.05L19.2 -22.05L19.8 -22.05Q20.15 -22.05 20.45 -21.95Q20.8 -21.9 21.05 -21.65Q21.3 -21.4 21.45 -20.95Q21.6 -20.5 21.6 -19.75Q21.6 -18.55 21.35 -17.05L20.8 -14.05L20.25 -11Q20 -9.45 20 -8.1Q20 -6.9 20.2 -6.25Q20.4 -5.6 21.1 -5.6Q21.65 -5.6 22.2 -5.85Q22.8 -6.1 23.35 -6.5L24.55 -7.5L25.65 -8.6Q26.9 -9.95 28.15 -11.65L29.35 -6.1M8 -8.1L8.05 -6.85Q8.15 -6.3 8.35 -5.8Q8.6 -5.35 8.95 -5.05Q9.35 -4.8 9.95 -4.8Q10.85 -4.8 11.6 -5.6Q12.35 -6.4 12.9 -7.5Q13.45 -8.65 13.8 -9.85Q14.15 -11.05 14.25 -11.85L15.75 -19.2Q14.75 -19.2 13.75 -18.65Q12.8 -18.15 11.9 -17.25Q11.05 -16.4 10.3 -15.25Q9.6 -14.15 9.05 -12.9Q8.55 -11.7 8.25 -10.45Q8 -9.2 8 -8.1" />
</g>
<g id="PathID_76" transform="matrix(0.503157, 0, 0, 0.39552, 413.15, 106.6)" opacity="1">
</g>
<g id="PathID_77" transform="matrix(0.503157, 0, 0, 0.39552, 424.75, 106.6)" opacity="1">
<path style="fill:#C3A3BD;fill-opacity:1" d="M2.4 -9.6L4.65 -11.6Q5.55 -12.4 6.15 -13.05Q6.8 -13.7 7.3 -14.35L8.5 -15.95L10.2 -18.25L12.8 -21.6L13.55 -22.45Q13.95 -22.9 14.4 -23.2Q14.9 -23.55 15.5 -23.75Q16.1 -24 16.8 -24Q18 -24 18.65 -23.7Q19.3 -23.45 19.6 -23.05Q19.9 -22.7 19.95 -22.3L20 -21.6Q20 -21 19.5 -20.25Q19.05 -19.55 18.45 -18.85L17.4 -17.6Q16.9 -17.05 16.8 -16.8Q16.8 -16 16.9 -15.35L17.2 -14.1L17.6 -12.8L18 -11.25Q18.2 -10.35 18.3 -9.15Q18.4 -8 18.4 -6.4Q19.3 -7 20.35 -7.45L22.5 -8.45L24.8 -9.65Q26 -10.3 27.2 -11.2L27.25 -5.6Q25.7 -4.4 23.65 -3.35Q21.6 -2.3 19.35 -1.5Q17.15 -0.7 14.85 -0.2Q12.55 0.25 10.5 0.25Q9.05 0.25 7.75 0Q6.5 -0.3 5.5 -0.9Q4.55 -1.5 3.95 -2.45Q3.35 -3.4 3.25 -4.75L2.55 -4.6L1.9 -4.6L1.15 -4.6Q0.8 -4.65 0.55 -4.8Q0.3 -5 0.15 -5.35Q0 -5.7 0 -6.4Q0 -7 0.3 -7.5Q0.6 -8 1 -8.4L1.8 -9.1L2.4 -9.6M5.6 -6.4Q5.9 -6.4 6.25 -6L7.05 -5.2Q7.55 -4.75 8.15 -4.35Q8.8 -4 9.6 -4Q10.6 -4 11.2 -4.3Q11.85 -4.65 12.2 -5.15Q12.6 -5.7 12.75 -6.4Q12.9 -7.15 12.9 -7.9L12.8 -9.3Q12.75 -10 12.6 -10.6L12.3 -11.8L12 -12.8L5.6 -6.4" />
</g>
<g id="PathID_78" transform="matrix(0.503157, 0, 0, 0.39552, 424.75, 106.6)" opacity="1">
</g>
<g id="PathID_79" transform="matrix(1.23927, 0, 0, 1.23927, 135.8, 82.05)" opacity="1">
<path style="fill:#FFFFFF;fill-opacity:1" d="M36.9 -6.25Q34.9 -4.1 32.35 -2.45Q29.8 -0.85 27.05 0.2Q24.3 1.3 21.45 1.85Q18.6 2.4 15.9 2.4Q12.95 2.4 10.35 1.7Q7.75 1.05 5.8 -0.35Q3.85 -1.8 2.7 -3.95Q1.6 -6.1 1.6 -9.1Q1.6 -11.6 2.5 -13.9Q3.4 -16.25 5.3 -18.05Q7.25 -19.85 10.2 -20.95Q13.2 -22.05 17.4 -22.15Q14.65 -22.15 12.6 -22.95Q10.55 -23.75 9.2 -25.05Q7.85 -26.4 7.15 -28.2Q6.5 -30 6.5 -32Q6.5 -33.85 7.15 -35.4Q7.8 -36.95 8.9 -38.2Q10.05 -39.45 11.6 -40.35Q13.15 -41.3 14.95 -41.9Q16.8 -42.5 18.75 -42.8Q20.75 -43.15 22.8 -43.15Q25.7 -43.15 28.5 -42.5Q31.3 -41.85 33.45 -40.55Q35.65 -39.3 36.95 -37.4Q38.3 -35.5 38.3 -32.95Q38.3 -32.05 37.7 -31.15Q37.1 -30.3 36.25 -29.6Q35.4 -28.9 34.45 -28.5Q33.5 -28.1 32.9 -28.1Q32.35 -28.1 32.35 -29Q32.35 -29.85 32.6 -31.15Q32.9 -32.45 33.5 -34.4Q32.85 -34.95 31.55 -35.5Q30.25 -36.05 28.6 -36.5Q26.95 -36.95 25.1 -37.2Q23.25 -37.5 21.45 -37.5Q19.8 -37.5 18.25 -37.2Q16.75 -36.9 15.55 -36.2Q14.4 -35.55 13.7 -34.4Q13.05 -33.3 13.05 -31.65Q13.05 -30.3 13.5 -29.35Q14 -28.45 14.8 -27.8Q15.65 -27.15 16.7 -26.7L18.85 -25.95L21.05 -25.35Q22.15 -25.05 23.05 -24.65Q24 -24.3 24.6 -23.75Q25.25 -23.2 25.45 -22.35L25.55 -21.3L25.6 -20.25Q25.6 -18.85 25.05 -18.2Q24.55 -17.6 23 -17.6L21.4 -17.65L19.55 -17.75Q17.55 -17.75 15.6 -17.2Q13.7 -16.7 12.15 -15.7Q10.65 -14.7 9.7 -13.2Q8.8 -11.7 8.8 -9.75Q8.8 -7.85 9.3 -6.6Q9.85 -5.35 10.8 -4.6Q11.75 -3.85 13 -3.5Q14.3 -3.2 15.75 -3.2Q17.55 -3.2 19.5 -3.55Q21.45 -3.9 23.35 -4.5Q25.3 -5.1 27.15 -5.95Q29 -6.8 30.55 -7.75Q32.15 -8.7 33.35 -9.75Q34.55 -10.85 35.2 -11.9L36.9 -6.25" />
</g>
<g id="PathID_80" transform="matrix(1.23927, 0, 0, 1.23927, 135.8, 82.05)" opacity="1">
</g>
<g id="PathID_81" transform="matrix(1.23927, 0, 0, 1.23927, 174.4, 82.05)" opacity="1">
<path style="fill:#FFFFFF;fill-opacity:1" d="M8.75 0Q7.4 0 6.25 -1.15Q5.1 -2.35 4.2 -4.35Q3.35 -6.35 2.85 -9Q2.4 -11.65 2.4 -14.55Q2.4 -16.75 2.7 -19.35Q3.05 -22 3.65 -24.75Q4.3 -27.55 5.15 -30.35Q6 -33.15 7.1 -35.7Q8.2 -38.3 9.45 -40.5Q10.75 -42.75 12.15 -44.4Q13.55 -46.1 15.05 -47.05Q16.6 -48 18.15 -48Q19.25 -48 19.95 -47.5Q20.65 -47 21.05 -46.2Q21.45 -45.4 21.6 -44.4Q21.75 -43.4 21.75 -42.35Q21.75 -40 21.2 -37.55Q20.7 -35.1 19.75 -32.65Q18.85 -30.2 17.65 -27.7L15.15 -22.8L12.55 -18L10.1 -13.4L9.8 -12.75L9.55 -11.85L9.3 -10.85L9.1 -9.85L9.1 -9.5Q9.1 -8.85 9.25 -8.25L9.6 -7.15L10 -6.35Q10.25 -6.1 10.45 -6.1Q10.9 -6.1 11.5 -6.3L12.8 -6.8L14.2 -7.6L15.65 -8.5Q17.2 -9.55 18.95 -10.9L21 -5.65Q18.75 -4.05 16.6 -2.8L14.6 -1.75Q13.6 -1.25 12.55 -0.85Q11.55 -0.45 10.55 -0.2Q9.6 0 8.75 0M8.8 -20L11.15 -24.5Q12.45 -27 13.55 -29.65Q14.7 -32.3 15.5 -34.9Q16.35 -37.55 16.55 -39.85L16.5 -41.05Q16.5 -41.6 16.3 -41.6Q15.55 -41.6 14.7 -40.65Q13.9 -39.7 13.05 -38.1Q12.2 -36.5 11.45 -34.35Q10.7 -32.25 10.1 -29.85Q9.5 -27.45 9.15 -24.9Q8.8 -22.4 8.8 -20" />
</g>
<g id="PathID_82" transform="matrix(1.23927, 0, 0, 1.23927, 174.4, 82.05)" opacity="1">
</g>
</svg>
